<svg width="694" height="646" viewBox="0 0 694 646" fill="none" xmlns="http://www.w3.org/2000/svg">
<path d="M545.904 568.815C574.345 568.815 597.401 555.504 597.401 539.084C597.401 522.664 574.345 509.354 545.904 509.354C517.463 509.354 494.407 522.664 494.407 539.084C494.407 555.504 517.463 568.815 545.904 568.815Z" fill="#E0E0E0"/>
<path d="M78.515 505.964L20.9016 472.713C18.8629 471.54 18.8629 469.633 20.9016 468.46L338.332 285.147C339.47 284.576 340.726 284.278 341.999 284.278C343.272 284.278 344.528 284.576 345.666 285.147L403.265 318.398C405.289 319.572 405.289 321.478 403.265 322.652L85.8486 505.964C84.7115 506.538 83.4555 506.837 82.1818 506.837C80.9081 506.837 79.6521 506.538 78.515 505.964Z" fill="#E0E0E0"/>
<path d="M278.269 453.896L324.647 427.084C329.428 424.312 331.819 420.704 331.819 417.081C331.819 413.459 331.819 410.628 331.819 410.628L276.039 379.02C274.696 378.139 273.579 376.956 272.777 375.565C271.974 374.174 271.509 372.614 271.419 371.011V313.809L190.411 360.612V417.815C190.504 419.415 190.97 420.972 191.772 422.36C192.574 423.748 193.691 424.929 195.031 425.808L243.654 453.882C253.217 459.411 268.72 459.411 278.269 453.896Z" fill="#8E93A9"/>
<g opacity="0.5">
<path d="M278.269 453.896L324.647 427.084C329.428 424.312 331.819 420.704 331.819 417.081C331.819 413.459 331.819 410.628 331.819 410.628L276.039 379.02C274.696 378.139 273.579 376.956 272.777 375.565C271.974 374.174 271.509 372.614 271.419 371.011V313.809L190.411 360.612V417.815C190.504 419.415 190.97 420.972 191.772 422.36C192.574 423.748 193.691 424.929 195.031 425.808L243.654 453.882C253.217 459.411 268.72 459.411 278.269 453.896Z" fill="black"/>
</g>
<path d="M209.86 427.95V434.374L195.016 425.823C193.674 424.942 192.556 423.759 191.754 422.368C190.951 420.978 190.486 419.418 190.396 417.815V360.612L205.841 351.709C206.149 355.625 206.501 359.673 206.823 363.619L195.999 369.882V414.559C196.082 416.16 196.542 417.719 197.343 419.108C198.143 420.497 199.261 421.677 200.604 422.552L209.86 427.95Z" fill="#8E93A9"/>
<path opacity="0.7" d="M209.86 427.95V434.374L195.016 425.823C193.674 424.942 192.556 423.759 191.754 422.368C190.951 420.978 190.486 419.418 190.396 417.815V360.612L205.841 351.709C206.149 355.625 206.501 359.673 206.823 363.619L195.999 369.882V414.559C196.082 416.16 196.542 417.719 197.343 419.108C198.143 420.497 199.261 421.677 200.604 422.552L209.86 427.95Z" fill="black"/>
<path d="M196 414.602C196.085 416.205 196.548 417.764 197.351 419.153C198.154 420.542 199.274 421.722 200.62 422.596L243.639 447.442C253.202 452.972 268.706 452.972 278.269 447.442L324.676 420.631C334.239 415.116 334.239 406.169 324.676 400.654L281.627 375.792C280.282 374.918 279.162 373.739 278.359 372.35C277.556 370.96 277.093 369.401 277.007 367.799V323.122L196 369.926V414.602Z" fill="#8E93A9"/>
<path opacity="0.3" d="M196 414.602C196.085 416.205 196.548 417.764 197.351 419.153C198.154 420.542 199.274 421.722 200.62 422.596L243.639 447.442C253.202 452.972 268.706 452.972 278.269 447.442L324.676 420.631C334.239 415.116 334.239 406.169 324.676 400.654L281.627 375.792C280.282 374.918 279.162 373.739 278.359 372.35C277.556 370.96 277.093 369.401 277.007 367.799V323.122L196 369.926V414.602Z" fill="black"/>
<path opacity="0.7" d="M291.029 381.234L281.627 375.807C280.282 374.933 279.162 373.753 278.359 372.364C277.556 370.975 277.093 369.416 277.007 367.813V323.122L196 369.926V414.602C196.085 416.205 196.548 417.764 197.351 419.153C198.154 420.542 199.274 421.722 200.62 422.596L209.86 427.935L291.029 381.234Z" fill="#8E93A9"/>
<path opacity="0.6" d="M291.029 381.234L281.627 375.807C280.282 374.933 279.162 373.753 278.359 372.364C277.556 370.975 277.093 369.416 277.007 367.813V323.122L196 369.926V414.602C196.085 416.205 196.548 417.764 197.351 419.153C198.154 420.542 199.274 421.722 200.62 422.596L209.86 427.935L291.029 381.234Z" fill="black"/>
<path d="M331.834 410.642V417.154C331.834 420.777 329.429 424.371 324.662 427.143L278.284 453.823C273.201 456.545 267.519 457.957 261.753 457.93V451.505C267.519 451.533 273.201 450.121 278.284 447.398L324.662 420.572C329.429 417.888 331.834 414.221 331.834 410.642Z" fill="#8E93A9"/>
<path opacity="0.2" d="M331.834 410.642V417.154C331.834 420.777 329.429 424.371 324.662 427.143L278.284 453.823C273.201 456.545 267.519 457.957 261.753 457.93V451.505C267.519 451.533 273.201 450.121 278.284 447.398L324.662 420.572C329.429 417.888 331.834 414.221 331.834 410.642Z" fill="black"/>
<path d="M65.9288 476.293C67.6796 477.139 69.6048 477.561 71.5489 477.526C73.493 477.49 75.4015 476.997 77.12 476.088L390.385 295.225C392.063 294.126 393.459 292.648 394.46 290.911C395.461 289.173 396.04 287.224 396.149 285.222V11.0303C396.081 9.08864 395.556 7.19045 394.615 5.49038C393.675 3.79031 392.346 2.33645 390.737 1.24722C388.99 0.397862 387.067 -0.0262834 385.124 0.00940345C383.182 0.0450903 381.275 0.539603 379.561 1.45257L66.2955 182.316C64.6164 183.409 63.2192 184.884 62.2176 186.62C61.2159 188.355 60.6382 190.303 60.5312 192.304V466.583C60.6157 468.51 61.1474 470.39 62.0842 472.075C63.0211 473.76 64.3373 475.204 65.9288 476.293Z" fill="#8E93A9"/>
<path opacity="0.3" d="M65.9288 476.293C67.6796 477.139 69.6048 477.561 71.5489 477.526C73.493 477.49 75.4015 476.997 77.12 476.088L390.385 295.225C392.063 294.126 393.459 292.648 394.46 290.911C395.461 289.173 396.04 287.224 396.149 285.222V11.0303C396.081 9.08864 395.556 7.19045 394.615 5.49038C393.675 3.79031 392.346 2.33645 390.737 1.24722C388.99 0.397862 387.067 -0.0262834 385.124 0.00940345C383.182 0.0450903 381.275 0.539603 379.561 1.45257L66.2955 182.316C64.6164 183.409 63.2192 184.884 62.2176 186.62C61.2159 188.355 60.6382 190.303 60.5312 192.304V466.583C60.6157 468.51 61.1474 470.39 62.0842 472.075C63.0211 473.76 64.3373 475.204 65.9288 476.293Z" fill="black"/>
<path d="M77.1207 476.073L390.386 295.21C392.067 294.117 393.466 292.643 394.47 290.907C395.475 289.172 396.055 287.224 396.165 285.222V11.0158C396.165 7.33431 393.569 5.85291 390.386 7.68633L77.1207 188.549C75.4352 189.654 74.0345 191.141 73.0328 192.889C72.031 194.638 71.4567 196.598 71.3564 198.611V472.744C71.3564 476.425 73.9379 477.921 77.1207 476.073Z" fill="#8E93A9"/>
<path d="M77.1207 476.073L390.386 295.21C392.067 294.117 393.466 292.643 394.47 290.907C395.475 289.172 396.055 287.224 396.165 285.222V11.0158C396.165 7.33431 393.569 5.85291 390.386 7.68633L77.1207 188.549C75.4352 189.654 74.0345 191.141 73.0328 192.889C72.031 194.638 71.4567 196.598 71.3564 198.611V472.744C71.3564 476.425 73.9379 477.921 77.1207 476.073Z" fill="#8E93A9"/>
<path opacity="0.5" d="M77.1207 476.073L390.386 295.21C392.067 294.117 393.466 292.643 394.47 290.907C395.475 289.172 396.055 287.224 396.165 285.222V11.0158C396.165 7.33431 393.569 5.85291 390.386 7.68633L77.1207 188.549C75.4352 189.654 74.0345 191.141 73.0328 192.889C72.031 194.638 71.4567 196.598 71.3564 198.611V472.744C71.3564 476.425 73.9379 477.921 77.1207 476.073Z" fill="black"/>
<path d="M76.2692 476.514C74.6409 477.21 72.8825 477.551 71.1119 477.513C69.3413 477.475 67.5991 477.06 66.0021 476.294C64.393 475.202 63.0642 473.745 62.1238 472.043C61.1834 470.34 60.6578 468.44 60.5898 466.496V435.695L71.4143 441.958V472.759C71.341 476.118 73.4678 477.629 76.2692 476.514Z" fill="#8E93A9"/>
<path opacity="0.7" d="M76.2692 476.514C74.6409 477.21 72.8825 477.551 71.1119 477.513C69.3413 477.475 67.5991 477.06 66.0021 476.294C64.393 475.202 63.0642 473.745 62.1238 472.043C61.1834 470.34 60.6578 468.44 60.5898 466.496V435.695L71.4143 441.958V472.759C71.341 476.118 73.4678 477.629 76.2692 476.514Z" fill="black"/>
<path d="M71.3564 441.913V472.714C71.3564 476.396 73.9379 477.892 77.1207 476.044L390.386 295.21C392.067 294.117 393.466 292.643 394.47 290.907C395.475 289.172 396.055 287.224 396.165 285.221V254.347L71.3564 441.913Z" fill="#8E93A9"/>
<g opacity="0.5">
<path d="M71.3564 441.913V472.714C71.3564 476.396 73.9379 477.892 77.1207 476.044L390.386 295.21C392.067 294.117 393.466 292.643 394.47 290.907C395.475 289.172 396.055 287.224 396.165 285.221V254.347L71.3564 441.913Z" fill="black"/>
</g>
<path d="M82.1807 419.164V202.087C82.2421 200.885 82.5879 199.714 83.1896 198.671C83.7914 197.628 84.6319 196.743 85.6422 196.088L381.922 25.0523C383.829 23.9522 385.384 24.8469 385.384 27.0617V244.08C385.319 245.281 384.972 246.451 384.37 247.493C383.769 248.535 382.93 249.421 381.922 250.079L85.6422 421.1C83.7207 422.259 82.1807 421.364 82.1807 419.164Z" fill="#27282A"/>
<path d="M233.753 360.656C232.176 361.681 230.864 363.065 229.924 364.694C228.983 366.322 228.441 368.15 228.341 370.028C228.341 373.475 230.761 374.883 233.753 373.152C235.328 372.125 236.639 370.741 237.579 369.113C238.519 367.485 239.063 365.658 239.165 363.78C239.165 360.319 236.745 358.925 233.753 360.656Z" fill="#8E93A9"/>
<path opacity="0.5" d="M233.753 360.656C232.176 361.681 230.864 363.065 229.924 364.694C228.983 366.322 228.441 368.15 228.341 370.028C228.341 373.475 230.761 374.883 233.753 373.152C235.328 372.125 236.639 370.741 237.579 369.113C238.519 367.485 239.063 365.658 239.165 363.78C239.165 360.319 236.745 358.925 233.753 360.656Z" fill="#27282A"/>
<path d="M73.0425 192.832C72.0054 194.588 71.4207 196.574 71.3411 198.611V441.913L60.5166 435.65V192.304C60.6009 190.291 61.1857 188.33 62.218 186.599L73.0425 192.832Z" fill="#8E93A9"/>
<path opacity="0.7" d="M73.0425 192.832C72.0054 194.588 71.4207 196.574 71.3411 198.611V441.913L60.5166 435.65V192.304C60.6009 190.291 61.1857 188.33 62.218 186.599L73.0425 192.832Z" fill="black"/>
<path d="M185.439 538.804L263.704 584.127C265.066 584.822 266.574 585.184 268.104 585.184C269.634 585.184 271.142 584.822 272.504 584.127L503.72 450.888C506.155 449.422 506.155 447.222 503.72 445.814L425.44 400.491C424.078 399.796 422.57 399.434 421.04 399.434C419.511 399.434 418.003 399.796 416.64 400.491L185.439 533.744C183.019 535.138 183.004 537.426 185.439 538.804Z" fill="#E0E0E0"/>
<path d="M498.983 437.688C498.932 437.142 498.736 436.619 498.417 436.173C498.097 435.727 497.665 435.374 497.164 435.151L423.636 392.718C422.274 392.023 420.766 391.66 419.236 391.66C417.706 391.66 416.199 392.023 414.836 392.718L190.426 522.465C189.928 522.692 189.5 523.046 189.183 523.492C188.866 523.937 188.673 524.459 188.622 525.003V532.718C188.671 533.263 188.865 533.784 189.185 534.228C189.505 534.672 189.939 535.022 190.44 535.241L263.938 577.688C265.302 578.38 266.809 578.74 268.339 578.74C269.868 578.74 271.375 578.38 272.739 577.688L497.149 448.131C497.649 447.91 498.081 447.56 498.4 447.116C498.72 446.673 498.916 446.152 498.968 445.608L498.983 437.688Z" fill="#8E93A9"/>
<path opacity="0.5" d="M498.983 437.688C498.932 437.142 498.736 436.619 498.417 436.173C498.097 435.727 497.665 435.374 497.164 435.151L423.636 392.718C422.274 392.023 420.766 391.66 419.236 391.66C417.706 391.66 416.199 392.023 414.836 392.718L190.426 522.465C189.928 522.692 189.5 523.046 189.183 523.492C188.866 523.937 188.673 524.459 188.622 525.003V532.718C188.671 533.263 188.865 533.784 189.185 534.228C189.505 534.672 189.939 535.022 190.44 535.241L263.938 577.688C265.302 578.38 266.809 578.74 268.339 578.74C269.868 578.74 271.375 578.38 272.739 577.688L497.149 448.131C497.649 447.91 498.081 447.56 498.4 447.116C498.72 446.673 498.916 446.152 498.968 445.608L498.983 437.688Z" fill="black"/>
<path d="M263.983 569.798L190.485 527.541C188.065 526.148 188.05 523.889 190.485 522.481L414.895 392.734C416.258 392.038 417.765 391.676 419.295 391.676C420.825 391.676 422.333 392.038 423.695 392.734L497.223 435.181C499.643 436.648 499.643 438.848 497.223 440.256L272.812 569.812C271.444 570.507 269.93 570.868 268.396 570.865C266.861 570.862 265.349 570.497 263.983 569.798Z" fill="#8E93A9"/>
<path opacity="0.3" d="M263.983 569.798L190.485 527.541C188.065 526.148 188.05 523.889 190.485 522.481L414.895 392.734C416.258 392.038 417.765 391.676 419.295 391.676C420.825 391.676 422.333 392.038 423.695 392.734L497.223 435.181C499.643 436.648 499.643 438.848 497.223 440.256L272.812 569.812C271.444 570.507 269.93 570.868 268.396 570.865C266.861 570.862 265.349 570.497 263.983 569.798Z" fill="black"/>
<path d="M268.089 570.838V578.729C266.655 578.713 265.245 578.366 263.967 577.717L190.498 535.27C189.995 535.048 189.56 534.696 189.237 534.25C188.915 533.804 188.717 533.28 188.665 532.733V525.003C188.722 525.549 188.921 526.071 189.243 526.517C189.565 526.962 189.998 527.315 190.498 527.54L263.967 569.812C265.239 570.479 266.652 570.831 268.089 570.838Z" fill="#8E93A9"/>
<path opacity="0.7" d="M268.089 570.838V578.729C266.655 578.713 265.245 578.366 263.967 577.717L190.498 535.27C189.995 535.048 189.56 534.696 189.237 534.25C188.915 533.804 188.717 533.28 188.665 532.733V525.003C188.722 525.549 188.921 526.071 189.243 526.517C189.565 526.962 189.998 527.315 190.498 527.54L263.967 569.812C265.239 570.479 266.652 570.831 268.089 570.838Z" fill="black"/>
<path d="M361.945 447.369L370.32 452.21C370.487 452.298 370.674 452.343 370.863 452.342L378.578 448.044L369.572 442.969L361.945 447.369Z" fill="#141416"/>
<path d="M372.022 441.561L380.442 446.416C380.597 446.491 380.768 446.526 380.94 446.518H381.248L388.655 442.236L379.649 437.175L372.022 441.561Z" fill="#141416"/>
<path d="M344.976 457.181L353.38 462.036C353.536 462.109 353.707 462.144 353.879 462.139L366.375 455.084L357.369 450.023L344.976 457.181Z" fill="#141416"/>
<path d="M334.899 463.004L343.289 467.844C343.448 467.923 343.624 467.963 343.802 467.962L351.532 463.664L342.526 458.604L334.899 463.004Z" fill="#141416"/>
<path d="M288.843 539.157L296.572 534.86L287.566 529.799L279.939 534.2L288.344 539.069C288.503 539.129 288.672 539.159 288.843 539.157Z" fill="#141416"/>
<path d="M324.808 468.812L333.168 473.653C333.34 473.744 333.532 473.789 333.726 473.785L341.441 469.487L332.435 464.412L324.808 468.812Z" fill="#141416"/>
<path d="M380.969 449.554L373.342 453.954L381.732 458.795C381.889 458.88 382.066 458.92 382.245 458.912L389.975 454.614L380.969 449.554Z" fill="#141416"/>
<path d="M352.794 489.025L360.523 484.727L351.503 479.667L343.876 484.067L352.28 488.922C352.441 488.997 352.617 489.032 352.794 489.025Z" fill="#141416"/>
<path d="M392.395 453.104L400.11 448.807L391.105 443.732L383.478 448.132L391.897 452.987C392.05 453.067 392.222 453.107 392.395 453.104Z" fill="#141416"/>
<path d="M342.716 494.891L350.431 490.593L341.425 485.519L333.798 489.919L342.173 494.759C342.339 494.852 342.527 494.897 342.716 494.891Z" fill="#141416"/>
<path d="M332.64 500.758L340.355 496.46L331.349 491.385L323.722 495.785L332.127 500.64C332.286 500.719 332.462 500.759 332.64 500.758Z" fill="#141416"/>
<path d="M372.946 477.437L389.153 468.241L368.766 456.595L360.126 461.611L370.79 467.757C370.876 467.796 370.95 467.857 371.004 467.934C371.058 468.012 371.09 468.102 371.098 468.197C371.093 468.28 371.066 468.361 371.02 468.431C370.973 468.5 370.909 468.556 370.834 468.593L364.101 472.479L372.462 477.305C372.61 477.387 372.776 477.432 372.946 477.437Z" fill="#141416"/>
<path d="M304.654 480.458L313.059 485.313C313.214 485.388 313.385 485.423 313.557 485.415L321.287 481.118L312.267 476.058L304.654 480.458Z" fill="#141416"/>
<path d="M362.869 483.26L370.599 478.963L361.593 473.902L353.966 478.303L362.312 483.113C362.481 483.212 362.674 483.262 362.869 483.26Z" fill="#141416"/>
<path d="M248.024 536.414L255.753 532.117L246.733 527.042L239.106 531.442L247.481 536.268C247.647 536.361 247.833 536.411 248.024 536.414Z" fill="#141416"/>
<path d="M224.013 527.013L232.432 531.882C232.585 531.949 232.75 531.984 232.916 531.985H233.224L240.646 527.702L231.626 522.642L224.013 527.013Z" fill="#141416"/>
<path d="M262.076 541.46H262.384L269.717 537.177L260.711 532.117L253.084 536.517L261.504 541.372C261.685 541.446 261.881 541.476 262.076 541.46Z" fill="#141416"/>
<path d="M268.691 550.789L276.42 546.491L267.4 541.431L259.773 545.831L268.148 550.657C268.312 550.752 268.501 550.798 268.691 550.789Z" fill="#141416"/>
<path d="M234.091 521.19L242.495 526.059C242.654 526.124 242.823 526.159 242.994 526.162L250.724 521.864L241.703 516.804L234.091 521.19Z" fill="#141416"/>
<path d="M278.767 544.979L286.482 540.667L277.476 535.607L269.864 540.007L278.268 544.862C278.423 544.94 278.594 544.981 278.767 544.979Z" fill="#141416"/>
<path d="M264.334 503.692L272.724 508.547C272.885 508.621 273.061 508.656 273.238 508.65L280.967 504.367L271.947 499.292L264.334 503.692Z" fill="#141416"/>
<path d="M274.411 497.913L282.786 502.753C282.947 502.843 283.13 502.889 283.314 502.885L291.044 498.588L282.038 493.513L274.411 497.913Z" fill="#141416"/>
<path d="M284.487 492.091L292.847 496.931C293.014 497.02 293.201 497.066 293.39 497.063L301.12 492.765L292.114 487.705L284.487 492.091Z" fill="#141416"/>
<path d="M254.243 509.558L262.618 514.384C262.779 514.478 262.961 514.528 263.146 514.531L270.891 510.218L261.856 505.158L254.243 509.558Z" fill="#141416"/>
<path d="M294.579 486.281L302.983 491.136C303.14 491.205 303.31 491.24 303.482 491.239L311.211 486.941L302.191 481.881L294.579 486.281Z" fill="#141416"/>
<path d="M244.167 515.426L252.571 520.266C252.731 520.344 252.907 520.384 253.085 520.383L260.8 516.086L251.794 511.025L244.167 515.426Z" fill="#141416"/>
<path d="M314.731 474.636L323.15 479.505C323.303 479.572 323.468 479.607 323.635 479.608L331.364 475.31L322.358 470.235L314.731 474.636Z" fill="#141416"/>
<path d="M339.915 473.257L348.29 478.082C348.456 478.173 348.643 478.219 348.833 478.214H349.141L356.548 473.931L347.542 468.871L339.915 473.257Z" fill="#141416"/>
<path d="M394.317 428.698L402.692 433.524C402.854 433.611 403.036 433.657 403.22 433.656L410.95 429.358L401.929 424.298L394.317 428.698Z" fill="#141416"/>
<path d="M404.393 422.875L412.768 427.7C412.929 427.79 413.111 427.836 413.296 427.832L421.025 423.535L412.02 418.475L404.393 422.875Z" fill="#141416"/>
<path d="M329.839 479.066L338.214 483.906C338.376 483.994 338.558 484.039 338.742 484.038L346.472 479.74L337.466 474.666L329.839 479.066Z" fill="#141416"/>
<path d="M414.469 417.051L422.844 421.891C423.006 421.978 423.188 422.023 423.372 422.023L431.102 417.711L422.096 412.651L414.469 417.051Z" fill="#141416"/>
<path d="M358.909 472.391H359.217L366.624 468.109L357.618 463.048L349.991 467.449L358.366 472.274C358.534 472.358 358.721 472.399 358.909 472.391Z" fill="#141416"/>
<path d="M405.698 435.269L414.058 440.094C414.229 440.188 414.421 440.238 414.615 440.241L422.331 435.944L413.325 430.869L405.698 435.269Z" fill="#141416"/>
<path d="M425.866 423.622L434.226 428.448C434.391 428.544 434.578 428.595 434.769 428.595L442.498 424.297L433.463 419.237L425.866 423.622Z" fill="#141416"/>
<path d="M424.663 434.418L432.393 430.12L423.373 425.045L415.746 429.446L424.15 434.3C424.31 434.379 424.485 434.419 424.663 434.418Z" fill="#141416"/>
<path d="M455.772 429.255C455.92 429.32 456.08 429.355 456.241 429.357H456.564L463.971 425.089L443.569 413.443L435.942 417.844L455.772 429.255Z" fill="#141416"/>
<path d="M319.748 484.888L328.137 489.728C328.298 489.819 328.481 489.864 328.665 489.86H328.973L336.395 485.592L327.375 480.517L319.748 484.888Z" fill="#141416"/>
<path d="M436.089 440.989H436.397L443.804 436.706L434.798 431.646L427.171 436.046L435.546 440.871C435.714 440.956 435.901 440.996 436.089 440.989Z" fill="#141416"/>
<path d="M446.165 435.166L453.895 430.868L444.875 425.808L437.248 430.208L445.608 435.034C445.78 435.124 445.971 435.169 446.165 435.166Z" fill="#141416"/>
<path d="M269.35 513.959L277.725 518.784C277.891 518.879 278.077 518.929 278.268 518.931L285.983 514.633L276.977 509.559L269.35 513.959Z" fill="#141416"/>
<path d="M249.197 525.693L257.558 530.518C257.724 530.609 257.911 530.655 258.1 530.65H258.408L265.83 526.367L256.81 521.292L249.197 525.693Z" fill="#141416"/>
<path d="M282.229 529.829L289.958 525.531L280.923 520.456L273.311 524.856L281.73 529.711C281.883 529.793 282.055 529.833 282.229 529.829Z" fill="#141416"/>
<path d="M272.123 535.637L279.853 531.34L270.832 526.279L263.205 530.68L271.624 535.534C271.779 535.609 271.951 535.645 272.123 535.637Z" fill="#141416"/>
<path d="M292.305 524.006H292.628L300.035 519.737L291.029 514.663L283.402 519.063L291.763 523.888C291.93 523.974 292.117 524.015 292.305 524.006Z" fill="#141416"/>
<path d="M309.671 490.711L318.061 495.551C318.225 495.632 318.406 495.673 318.589 495.668H318.897L326.304 491.385L317.298 486.325L309.671 490.711Z" fill="#141416"/>
<path d="M312.472 512.36L320.202 508.062L311.181 503.002L303.554 507.402L311.929 512.228C312.096 512.316 312.283 512.361 312.472 512.36Z" fill="#141416"/>
<path d="M302.396 518.183L310.111 513.959L301.106 508.898L293.479 513.299L301.898 518.168C302.061 518.205 302.231 518.21 302.396 518.183Z" fill="#141416"/>
<path d="M289.518 502.357L297.878 507.182C298.044 507.274 298.232 507.319 298.421 507.314L306.151 503.017L297.145 497.957L289.518 502.357Z" fill="#141416"/>
<path d="M259.274 519.825L267.634 524.651C267.806 524.742 267.998 524.788 268.192 524.783L275.907 520.486L266.901 515.425L259.274 519.825Z" fill="#141416"/>
<path d="M299.595 496.534L307.97 501.36C308.136 501.451 308.324 501.496 308.513 501.492L316.228 497.194L307.222 492.134L299.595 496.534Z" fill="#141416"/>
<path d="M279.456 508.165L287.816 513.005C287.982 513.096 288.17 513.142 288.359 513.137H288.667L296.089 508.869L287.068 503.794L279.456 508.165Z" fill="#141416"/>
<path d="M322.55 506.537L330.279 502.24L321.259 497.18L313.646 501.58L322.036 506.42C322.193 506.505 322.371 506.546 322.55 506.537Z" fill="#141416"/>
<path d="M382.128 435.738L390.533 440.592C390.689 440.664 390.86 440.699 391.032 440.695L398.761 436.398L389.741 431.337L382.128 435.738Z" fill="#141416"/>
<path d="M221.549 528.436L213.922 532.836L222.341 537.691C222.497 537.766 222.668 537.801 222.84 537.793H223.148L230.57 533.51L221.549 528.436Z" fill="#141416"/>
<path d="M236.657 532.865L225.319 539.406L233.738 544.276C233.891 544.343 234.056 544.377 234.222 544.379H234.545L245.663 537.954L236.657 532.865Z" fill="#141416"/>
<path d="M209.318 519.532L200.092 524.856L208.482 529.682C208.642 529.773 208.825 529.818 209.01 529.814L218.323 524.607L209.318 519.532Z" fill="#141416"/>
<path d="M257.323 547.254L248.112 552.578L256.473 557.404C256.64 557.492 256.826 557.537 257.015 557.536L266.329 552.314L257.323 547.254Z" fill="#141416"/>
<path d="M250.694 537.925L236.716 545.992L245.12 550.847C245.276 550.918 245.447 550.954 245.619 550.949H245.927L259.714 543L250.694 537.925Z" fill="#141416"/>
<path d="M225.07 520.544L232.785 516.247L223.72 511.187L216.093 515.587L224.468 520.427C224.653 520.524 224.862 520.565 225.07 520.544Z" fill="#141416"/>
<path d="M259.494 559.149L267.869 563.989C268.034 564.067 268.214 564.108 268.397 564.107L279.837 557.668L270.832 552.607L259.494 559.149Z" fill="#141416"/>
<path d="M235.146 514.721L242.876 510.423L233.856 505.363L226.243 509.763L234.648 514.618C234.804 514.69 234.974 514.725 235.146 514.721Z" fill="#141416"/>
<path d="M279.852 488.922H280.16L287.582 484.639L278.562 479.579L270.949 483.979L279.324 488.819C279.488 488.899 279.67 488.934 279.852 488.922Z" fill="#141416"/>
<path d="M289.928 483.158L297.658 478.86L288.652 473.785L281.025 478.185L289.415 483.026C289.571 483.114 289.749 483.16 289.928 483.158Z" fill="#141416"/>
<path d="M269.776 494.73H270.084L277.418 490.447L268.412 485.387L260.785 489.787L269.19 494.598C269.369 494.695 269.572 494.741 269.776 494.73Z" fill="#141416"/>
<path d="M255.3 503.09H255.622L263.029 498.822L254.023 493.747L246.396 498.147L254.786 502.987C254.944 503.069 255.122 503.105 255.3 503.09Z" fill="#141416"/>
<path d="M245.223 508.913L252.953 504.601L243.947 499.541L236.32 503.941L244.724 508.796C244.878 508.876 245.05 508.916 245.223 508.913Z" fill="#141416"/>
<path d="M460.04 443.365L468.474 448.235C468.628 448.296 468.792 448.326 468.958 448.323H469.266L476.599 444.04L467.594 438.979L460.04 443.365Z" fill="#141416"/>
<path d="M407.517 473.683L415.877 478.508C416.04 478.608 416.228 478.659 416.42 478.655L424.149 474.358L415.144 469.283L407.517 473.683Z" fill="#141416"/>
<path d="M439.888 455.011L448.263 459.837C448.425 459.924 448.607 459.97 448.791 459.969H449.099L466.597 449.863L457.592 444.803L439.888 455.011Z" fill="#141416"/>
<path d="M417.593 467.874L425.954 472.685C426.122 472.786 426.315 472.836 426.511 472.832L434.241 468.534L425.22 463.474L417.593 467.874Z" fill="#141416"/>
<path d="M427.685 462.051L436.016 466.847C436.184 466.961 436.385 467.017 436.588 467.009L444.317 462.711L435.297 457.651L427.685 462.051Z" fill="#141416"/>
<path d="M299.99 477.291H300.313L307.72 473.008L298.714 467.933L291.087 472.333L299.448 477.159C299.615 477.248 299.801 477.294 299.99 477.291Z" fill="#141416"/>
<path d="M466.362 426.556L458.735 430.956L478.551 442.396C478.704 442.463 478.868 442.498 479.035 442.499H479.343L486.75 438.216L466.362 426.556Z" fill="#141416"/>
<path d="M284.971 544.452L293.332 549.277C293.499 549.365 293.685 549.411 293.874 549.409L303.188 544.188L294.124 539.127L284.971 544.452Z" fill="#141416"/>
<path d="M296.632 537.705L304.992 542.531C305.162 542.627 305.354 542.678 305.55 542.678H305.858L363.148 509.559L354.128 504.484L296.632 537.705Z" fill="#141416"/>
<path d="M298.92 533.335L306.65 529.037L297.644 523.977L290.017 528.377L298.421 533.218C298.577 533.294 298.747 533.334 298.92 533.335Z" fill="#141416"/>
<path d="M273.296 551.185L281.656 556.01C281.822 556.103 282.009 556.153 282.199 556.157L291.513 550.935L282.507 545.86L273.296 551.185Z" fill="#141416"/>
<path d="M356.592 503.091L364.967 507.931C365.13 508.015 365.311 508.06 365.495 508.063H365.818L374.809 502.871L365.803 497.825L356.592 503.091Z" fill="#141416"/>
<path d="M379.928 489.611L388.333 494.466C388.491 494.547 388.668 494.588 388.846 494.584H389.154L398.16 489.391L389.154 484.316L379.928 489.611Z" fill="#141416"/>
<path d="M368.253 496.358L376.672 501.213C376.828 501.285 376.999 501.32 377.171 501.316L386.484 496.094L377.479 491.034L368.253 496.358Z" fill="#141416"/>
<path d="M391.603 482.879L399.978 487.705C400.144 487.796 400.331 487.841 400.521 487.837H400.829L411.947 481.412L402.941 476.352L391.603 482.879Z" fill="#141416"/>
<path d="M402.413 447.281H402.721L410.142 443.012L401.195 437.908L393.568 442.308L401.973 447.163C402.11 447.233 402.26 447.273 402.413 447.281Z" fill="#141416"/>
<path d="M415.114 466.26H415.423L422.844 461.977L413.838 456.917L406.211 461.317L414.601 466.172C414.763 466.242 414.939 466.272 415.114 466.26Z" fill="#141416"/>
<path d="M379.575 486.78L400.564 474.812L391.544 469.751L370.658 481.808L379.077 486.663C379.23 486.744 379.402 486.785 379.575 486.78Z" fill="#141416"/>
<path d="M437.394 453.383H437.717L445.124 449.1L436.118 444.04L428.491 448.44L436.896 453.295C437.053 453.361 437.224 453.391 437.394 453.383Z" fill="#141416"/>
<path d="M447.485 447.575H447.793L455.2 443.307L446.194 438.232L438.567 442.632L446.957 447.487C447.124 447.557 447.305 447.587 447.485 447.575Z" fill="#141416"/>
<path d="M369.485 492.603L377.215 488.305L368.209 483.23L360.582 487.631L368.957 492.471C369.12 492.556 369.301 492.601 369.485 492.603Z" fill="#141416"/>
<path d="M426.012 446.812H426.32L433.727 442.529L424.663 437.454L417.036 441.854L425.396 446.665C425.58 446.78 425.796 446.831 426.012 446.812Z" fill="#141416"/>
<path d="M319.058 521.688L326.788 517.39L317.767 512.33L310.155 516.73L318.559 521.585C318.714 521.66 318.886 521.695 319.058 521.688Z" fill="#141416"/>
<path d="M359.408 498.412L367.138 494.114L358.117 489.024L350.505 493.425L358.924 498.294C359.076 498.363 359.241 498.403 359.408 498.412Z" fill="#141416"/>
<path d="M309.012 527.512H309.32L316.653 523.229L307.648 518.168L300.021 522.569L308.44 527.424C308.618 527.506 308.816 527.537 309.012 527.512Z" fill="#141416"/>
<path d="M329.164 515.88L336.894 511.583L327.858 506.508L320.231 510.908L328.665 515.778C328.821 515.852 328.992 515.887 329.164 515.88Z" fill="#141416"/>
<path d="M339.255 510.057H339.592L347 505.775L337.964 500.758L330.337 505.159L338.712 509.999C338.885 510.066 339.072 510.086 339.255 510.057Z" fill="#141416"/>
<path d="M349.332 504.234H349.64L357.062 499.951L348.041 494.891L340.414 499.291L348.833 504.146C348.992 504.209 349.161 504.239 349.332 504.234Z" fill="#141416"/>
<path d="M324.558 463.107L332.259 458.809L323.238 453.734L315.611 458.135L323.986 462.96C324.157 463.067 324.357 463.119 324.558 463.107Z" fill="#141416"/>
<path d="M457.562 441.751H457.87L465.291 437.483L456.271 432.408L448.644 436.808L457.063 441.678C457.223 441.736 457.392 441.761 457.562 441.751Z" fill="#141416"/>
<path d="M344.726 451.461L352.441 447.164L343.436 442.089L335.809 446.489L344.169 451.315C344.339 451.411 344.531 451.461 344.726 451.461Z" fill="#141416"/>
<path d="M367.109 438.539L374.838 434.242L365.818 429.167L358.206 433.567L366.581 438.407C366.742 438.498 366.924 438.544 367.109 438.539Z" fill="#141416"/>
<path d="M357.032 444.362L364.747 440.064L355.727 434.989L348.1 439.389L356.475 444.23C356.646 444.321 356.838 444.367 357.032 444.362Z" fill="#141416"/>
<path d="M314.482 468.929L322.212 464.617L313.191 459.557L305.579 463.957L313.954 468.797C314.118 468.881 314.298 468.926 314.482 468.929Z" fill="#141416"/>
<path d="M334.635 457.284H334.957L342.291 453.002L333.358 447.956L325.731 452.356L334.092 457.182C334.261 457.261 334.448 457.296 334.635 457.284Z" fill="#141416"/>
<path d="M377.185 432.717L384.915 428.419L375.909 423.359L368.282 427.759L376.657 432.585C376.818 432.675 377.001 432.721 377.185 432.717Z" fill="#141416"/>
<path d="M416.713 406.521L424.428 402.223L419.529 399.554L411.902 403.954L416.185 406.374C416.347 406.462 416.528 406.513 416.713 406.521Z" fill="#141416"/>
<path d="M433.464 416.201L441.194 411.903L432.173 406.887L424.546 411.287L432.921 416.128C433.094 416.196 433.28 416.221 433.464 416.201Z" fill="#141416"/>
<path d="M386.528 423.989H386.836L394.243 419.707L389.344 417.066L381.717 421.467L385.985 423.887C386.157 423.959 386.342 423.994 386.528 423.989Z" fill="#141416"/>
<path d="M396.546 418.167H396.854L404.188 413.898L399.377 411.288L391.75 415.688L396.048 418.108C396.207 418.165 396.378 418.185 396.546 418.167Z" fill="#141416"/>
<path d="M406.622 412.343L414.352 408.046L409.453 405.42L401.826 409.821L406.138 412.255C406.292 412.317 406.456 412.347 406.622 412.343Z" fill="#141416"/>
<g opacity="0.8">
<path d="M418.092 32.5172V250.254C418.008 251.823 417.555 253.35 416.77 254.711C415.985 256.071 414.89 257.228 413.575 258.086L120.096 427.846C119.654 428.12 119.148 428.272 118.629 428.286C118.439 428.308 118.247 428.308 118.057 428.286C117.925 428.258 117.797 428.213 117.676 428.154L117.426 428.007L117.162 427.831C117.072 427.766 116.989 427.692 116.913 427.611C116.558 427.275 116.274 426.871 116.077 426.423C115.764 425.701 115.604 424.922 115.607 424.135V207.411C115.695 205.839 116.151 204.31 116.939 202.947C117.726 201.584 118.822 200.425 120.14 199.564L413.575 29.9358C414.012 29.6318 414.517 29.4383 415.046 29.3719C415.574 29.3055 416.111 29.3681 416.611 29.5544C416.749 29.6164 416.881 29.69 417.007 29.7744C417.122 29.8584 417.222 29.9627 417.3 30.0824C417.352 30.1294 417.396 30.1837 417.432 30.2438C417.494 30.3128 417.544 30.3922 417.579 30.4784C417.696 30.6542 417.785 30.8472 417.843 31.0505C417.894 31.1825 417.929 31.3205 417.945 31.4612C417.952 31.4749 417.955 31.4899 417.955 31.5052C417.955 31.5204 417.952 31.5354 417.945 31.5492C417.985 31.6829 418.01 31.8206 418.019 31.9599C418.077 32.1212 418.092 32.3119 418.092 32.5172Z" fill="#734EA1"/>
<path d="M415.585 30.7577C415.736 30.7585 415.885 30.7884 416.025 30.8458H416.113L416.23 31.0071L416.348 31.1684C416.348 31.1684 416.348 31.1684 416.348 31.2418L416.48 31.6671C416.478 31.7013 416.478 31.7356 416.48 31.7698C416.48 31.9165 416.48 32.0631 416.48 32.2245V250.255C416.399 251.568 416.015 252.844 415.359 253.984C414.702 255.124 413.791 256.097 412.696 256.825L119.363 426.585C119.136 426.733 118.872 426.814 118.601 426.82H118.293H118.19L117.999 426.688V426.615C117.789 426.423 117.624 426.188 117.515 425.925C117.278 425.39 117.158 424.81 117.163 424.224V207.411C117.243 206.096 117.628 204.818 118.288 203.678C118.947 202.537 119.863 201.566 120.962 200.84L414.294 31.1684C414.685 30.9296 415.128 30.7888 415.585 30.7577ZM415.585 29.291C414.874 29.3128 414.181 29.5201 413.576 29.8924L120.097 199.579C118.781 200.439 117.686 201.596 116.899 202.956C116.112 204.316 115.655 205.842 115.565 207.411V424.048C115.561 424.835 115.721 425.614 116.034 426.336C116.231 426.783 116.515 427.187 116.87 427.524C116.946 427.605 117.029 427.679 117.119 427.744L117.383 427.92L117.633 428.067C117.754 428.126 117.882 428.17 118.014 428.199C118.204 428.22 118.396 428.22 118.586 428.199H118.659C119.179 428.184 119.685 428.033 120.126 427.759L413.576 258.087C414.891 257.229 415.986 256.072 416.771 254.711C417.556 253.35 418.009 251.823 418.093 250.255V32.5178C418.093 32.3125 418.093 32.1218 418.093 31.9458C418.084 31.8066 418.06 31.6688 418.02 31.5351C418.026 31.5214 418.03 31.5063 418.03 31.4911C418.03 31.4759 418.026 31.4609 418.02 31.4471C418.003 31.3064 417.968 31.1685 417.917 31.0364C417.859 30.8331 417.77 30.6401 417.653 30.4644C417.618 30.3782 417.569 30.2987 417.506 30.2297C417.471 30.1697 417.426 30.1153 417.374 30.0684C417.296 29.9487 417.197 29.8443 417.081 29.7604C416.956 29.6759 416.823 29.6023 416.685 29.5404C416.363 29.3918 416.013 29.3167 415.658 29.3204L415.585 29.291Z" fill="#734EA1"/>
<g opacity="0.7">
<path d="M418.092 32.5172V250.254C418.008 251.823 417.555 253.35 416.77 254.711C415.985 256.071 414.89 257.228 413.575 258.086L120.096 427.846C119.654 428.12 119.148 428.272 118.629 428.286C118.439 428.308 118.247 428.308 118.057 428.286C117.925 428.258 117.797 428.213 117.676 428.154L117.426 428.007L117.162 427.831C117.072 427.766 116.989 427.692 116.913 427.611C116.558 427.275 116.274 426.871 116.077 426.423C115.764 425.701 115.604 424.922 115.607 424.135V207.411C115.695 205.839 116.151 204.31 116.939 202.947C117.726 201.584 118.822 200.425 120.14 199.564L413.575 29.9358C414.012 29.6318 414.517 29.4383 415.046 29.3719C415.574 29.3055 416.111 29.3681 416.611 29.5544C416.749 29.6164 416.881 29.69 417.007 29.7744C417.122 29.8584 417.222 29.9627 417.3 30.0824C417.352 30.1294 417.396 30.1837 417.432 30.2438C417.494 30.3128 417.544 30.3922 417.579 30.4784C417.696 30.6542 417.785 30.8472 417.843 31.0505C417.894 31.1825 417.929 31.3205 417.945 31.4612C417.952 31.4749 417.955 31.4899 417.955 31.5052C417.955 31.5204 417.952 31.5354 417.945 31.5492C417.985 31.6829 418.01 31.8206 418.019 31.9599C418.077 32.1212 418.092 32.3119 418.092 32.5172Z" fill="#734EA1"/>
</g>
</g>
<path d="M416.611 29.5113C416.112 29.325 415.575 29.2624 415.046 29.3288C414.518 29.3952 414.013 29.5886 413.575 29.8926L120.096 199.579C118.781 200.439 117.686 201.596 116.898 202.956C116.111 204.316 115.654 205.842 115.564 207.411V222.196L109.785 218.808V204.141C109.871 202.574 110.325 201.05 111.11 199.692C111.895 198.334 112.989 197.18 114.303 196.323L407.796 26.6365C408.265 26.2906 408.821 26.0826 409.401 26.0359C409.982 25.9893 410.564 26.1058 411.082 26.3724C411.888 26.8565 415.643 29.0126 416.611 29.5113Z" fill="#8E93A9"/>
<path d="M418.093 32.4741C418.093 29.6286 416.054 28.4699 413.576 29.9073L120.082 199.594C118.768 200.451 117.674 201.605 116.889 202.963C116.105 204.321 115.651 205.845 115.564 207.411V222.196L418.093 47.3174V32.4741Z" fill="#8E93A9"/>
<g opacity="0.4">
<path d="M413.575 29.9363L120.096 199.594C118.756 200.436 117.659 201.614 116.913 203.011L111.164 199.696C111.912 198.343 112.992 197.202 114.302 196.381L407.796 26.6362C408.265 26.2926 408.82 26.0849 409.4 26.0358C409.979 25.9866 410.561 26.0979 411.081 26.3575C411.888 26.8562 415.643 28.9976 416.596 29.511C416.097 29.3245 415.559 29.2657 415.032 29.34C414.504 29.4143 414.003 29.6193 413.575 29.9363Z" fill="#27282A"/>
</g>
<path opacity="0.15" d="M109.785 218.836V204.169C109.848 202.569 110.323 201.013 111.164 199.651L116.928 202.952C116.085 204.306 115.615 205.86 115.564 207.454V222.239L109.785 218.836Z" fill="black"/>
<path d="M390.929 49.3119C390.116 49.9577 389.464 50.7818 389.021 51.7203C388.579 52.6588 388.358 53.6866 388.377 54.7241C388.377 56.8949 389.521 57.9949 390.929 57.1882C391.741 56.5424 392.393 55.7183 392.836 54.7798C393.279 53.8412 393.499 52.8135 393.481 51.776C393.407 49.6052 392.263 48.5052 390.929 49.3119Z" fill="#3BE400"/>
<path d="M400.052 44.0016C399.239 44.6437 398.586 45.465 398.143 46.4013C397.7 47.3376 397.48 48.3637 397.5 49.3992C397.5 51.57 398.644 52.67 400.052 51.8633C400.875 51.2235 401.539 50.402 401.991 49.4631C402.444 48.5243 402.674 47.4934 402.663 46.4511C402.663 44.2803 401.46 43.1362 400.052 44.0016Z" fill="#3BE400"/>
<path d="M409.248 38.737C408.434 39.3806 407.779 40.2042 407.336 41.1433C406.894 42.0824 406.675 43.1113 406.696 44.1493C406.696 46.32 407.84 47.4201 409.248 46.5987C410.063 45.9552 410.718 45.1315 411.16 44.1924C411.603 43.2534 411.822 42.2245 411.801 41.1865C411.801 38.957 410.656 37.857 409.248 38.737Z" fill="#3BE400"/>
<path opacity="0.9" d="M117.222 427.861L116.664 427.539C116.254 427.289 115.77 427.025 115.198 426.761L114.435 426.336L113.247 425.661C112.865 425.426 112.528 425.236 112.249 425.089C111.971 424.942 111.78 424.825 111.692 424.781C111.392 424.627 111.127 424.412 110.915 424.15C110.666 423.882 110.463 423.575 110.313 423.241C109.96 422.494 109.779 421.677 109.785 420.85V218.822L115.564 222.21V424.062C115.587 424.846 115.746 425.621 116.034 426.35C116.231 426.798 116.515 427.202 116.87 427.539C116.935 427.63 117.02 427.705 117.119 427.759L117.222 427.861Z" fill="#141416"/>
<path d="M213.675 297.571C213.675 297.571 202.997 290.663 201.618 290.619L171.257 289.666L183.328 296.09V296.618L213.675 297.571Z" fill="#263238"/>
<path d="M161.635 318.384V299.317L213.674 234.619V259.847L183.328 296.031V296.559L213.674 297.513V322.741L161.635 318.384Z" fill="#FAFAFA"/>
<path d="M213.688 234.677L201.617 227.725L149.577 292.423L161.634 299.36L213.688 234.677Z" fill="#734EA1"/>
<path d="M149.577 292.422V311.431L161.634 318.369V299.36L149.577 292.422Z" fill="#141416"/>
<path d="M245.179 310.302L229.045 319.631L269.322 172.004L284.899 163.013L245.179 310.302Z" fill="#FAFAFA"/>
<path d="M284.885 163.013L272.814 156.061L257.237 165.052L269.308 172.004L284.885 163.013Z" fill="#734EA1"/>
<path d="M257.236 165.052L269.308 172.004L229.031 319.616L216.96 312.664L257.236 165.052Z" fill="#141416"/>
<path d="M288.169 240.647L300.226 247.599L330.573 211.063L318.516 204.11L288.169 240.647Z" fill="#263238"/>
<path d="M330.573 211.078L300.226 209.934V184.706L352.266 189.312V208.379L300.226 272.915V247.6L330.573 211.606V211.078Z" fill="#FAFAFA"/>
<path d="M288.169 177.754L300.226 184.706L352.28 189.297L340.209 182.345L288.169 177.754Z" fill="#734EA1"/>
<path d="M300.226 184.706V209.934L288.169 202.982V177.754" fill="#141416"/>
<path d="M288.169 240.647L300.226 247.599V272.827L288.169 265.875V240.647Z" fill="#141416"/>
<g opacity="0.8">
<path d="M512.859 70.066V287.803C512.774 289.375 512.32 290.905 511.532 292.269C510.745 293.632 509.647 294.791 508.327 295.65L383.229 367.813C382.791 368.095 382.283 368.247 381.762 368.253C381.569 368.25 381.377 368.226 381.19 368.18L380.794 368.048L380.56 367.901L380.296 367.725C380.206 367.66 380.122 367.586 380.046 367.505C379.687 367.172 379.402 366.768 379.21 366.317C378.897 365.595 378.737 364.816 378.741 364.029V147.392C378.826 145.822 379.279 144.293 380.064 142.93C380.849 141.567 381.943 140.408 383.258 139.545L508.268 67.4552C508.706 67.1464 509.213 66.949 509.745 66.88C510.276 66.811 510.816 66.8725 511.319 67.0592C511.454 67.1233 511.582 67.202 511.7 67.2939C511.811 67.3773 511.91 67.4761 511.994 67.5872C512.045 67.6342 512.09 67.6886 512.126 67.7486C512.188 67.8176 512.238 67.897 512.272 67.9833C512.397 68.162 512.491 68.3603 512.551 68.57C512.602 68.6969 512.637 68.8301 512.654 68.966C512.66 68.9797 512.664 68.9948 512.664 69.01C512.664 69.0252 512.66 69.0402 512.654 69.054C512.693 69.1877 512.718 69.3254 512.727 69.4647C512.844 69.6847 512.859 69.8754 512.859 70.066Z" fill="#27282A"/>
<path d="M510.336 68.3056C510.489 68.3029 510.64 68.3382 510.776 68.4083H510.864L510.996 68.5696L511.099 68.7456L511.245 69.171C511.253 69.2048 511.253 69.2398 511.245 69.2736C511.254 69.4202 511.254 69.5671 511.245 69.7137V287.802C511.162 289.116 510.776 290.393 510.116 291.533C509.457 292.673 508.544 293.645 507.447 294.373L382.51 366.551C382.283 366.699 382.018 366.78 381.747 366.786H381.439H381.337L381.146 366.669C380.945 366.473 380.785 366.238 380.677 365.979C380.439 365.444 380.319 364.864 380.325 364.278V147.392C380.405 146.079 380.789 144.802 381.446 143.662C382.102 142.522 383.014 141.55 384.109 140.821L509.207 68.7309C509.589 68.4826 510.028 68.3361 510.483 68.3056M510.483 66.8389C509.771 66.8684 509.079 67.0806 508.473 67.4549L383.376 139.545C382.06 140.407 380.966 141.567 380.181 142.93C379.396 144.293 378.943 145.821 378.858 147.392V364.029C378.855 364.816 379.014 365.595 379.327 366.317C379.519 366.767 379.804 367.172 380.163 367.505C380.239 367.586 380.323 367.659 380.413 367.725L380.677 367.901C380.752 367.961 380.836 368.011 380.926 368.047C381.047 368.107 381.175 368.151 381.307 368.179C381.495 368.225 381.687 368.25 381.879 368.253C382.4 368.245 382.908 368.093 383.346 367.813L508.268 295.649C509.588 294.79 510.686 293.632 511.474 292.269C512.261 290.905 512.716 289.375 512.8 287.802V70.0657C512.8 69.875 512.8 69.6843 512.8 69.4937C512.791 69.3544 512.767 69.2167 512.727 69.083C512.733 69.0692 512.737 69.0542 512.737 69.039C512.737 69.0237 512.733 69.0087 512.727 68.995C512.71 68.859 512.676 68.7259 512.624 68.5989C512.564 68.3893 512.47 68.191 512.345 68.0122C512.311 67.926 512.261 67.8466 512.199 67.7776C512.163 67.7175 512.119 67.6632 512.067 67.6162C511.983 67.505 511.885 67.4063 511.773 67.3229C511.655 67.231 511.527 67.1523 511.392 67.0882C511.065 66.9394 510.71 66.8643 510.351 66.8682L510.483 66.8389Z" fill="#27282A"/>
<g opacity="0.8">
<path d="M512.859 70.0665V287.803C512.774 289.376 512.32 290.906 511.532 292.269C510.745 293.633 509.647 294.791 508.327 295.65L383.229 367.814C382.791 368.095 382.283 368.248 381.762 368.254C381.569 368.251 381.377 368.226 381.19 368.18L380.794 368.048L380.56 367.902L380.296 367.726C380.206 367.66 380.122 367.587 380.046 367.506C379.687 367.173 379.402 366.768 379.21 366.318C378.897 365.595 378.737 364.816 378.741 364.029V147.393C378.826 145.822 379.279 144.294 380.064 142.931C380.849 141.568 381.943 140.408 383.258 139.546L508.268 67.4557C508.706 67.1469 509.213 66.9495 509.745 66.8805C510.276 66.8115 510.816 66.873 511.319 67.0597C511.454 67.1238 511.582 67.2025 511.7 67.2944C511.811 67.3778 511.91 67.4765 511.994 67.5877C512.045 67.6347 512.09 67.689 512.126 67.7491C512.188 67.8181 512.238 67.8975 512.272 67.9838C512.397 68.1625 512.491 68.3608 512.551 68.5704C512.602 68.6974 512.637 68.8305 512.654 68.9665C512.66 68.9802 512.664 68.9952 512.664 69.0105C512.664 69.0257 512.66 69.0407 512.654 69.0545C512.693 69.1882 512.718 69.3259 512.727 69.4652C512.844 69.6852 512.859 69.8758 512.859 70.0665Z" fill="#27282A"/>
</g>
</g>
<path d="M511.377 67.059C510.874 66.8723 510.334 66.8107 509.802 66.8797C509.271 66.9487 508.764 67.1462 508.326 67.455L383.228 139.545C381.913 140.407 380.818 141.567 380.034 142.93C379.249 144.293 378.796 145.821 378.711 147.392V162.177L372.932 158.789V144.121C373.018 142.555 373.472 141.031 374.257 139.673C375.041 138.315 376.135 137.16 377.449 136.304L502.562 64.1988C503.031 63.8604 503.584 63.6569 504.16 63.6104C504.737 63.5638 505.315 63.676 505.832 63.9348C506.654 64.4042 510.409 66.6043 511.377 67.059Z" fill="#8E93A9"/>
<path d="M512.844 70.036C512.844 67.1025 510.82 66.0171 508.326 67.4545L383.228 139.559C381.913 140.417 380.818 141.574 380.033 142.935C379.248 144.296 378.795 145.823 378.711 147.392V162.176L512.844 84.8793V70.036Z" fill="#8E93A9"/>
<g opacity="0.4">
<path d="M508.268 67.4545L383.185 139.559C381.853 140.385 380.752 141.535 379.987 142.903L374.252 139.588C374.997 138.236 376.078 137.1 377.391 136.288L502.548 64.1837C503.019 63.844 503.574 63.6398 504.154 63.5932C504.733 63.5467 505.314 63.6596 505.833 63.9196C506.655 64.4183 510.395 66.5451 511.348 67.0585C510.843 66.8614 510.296 66.7944 509.757 66.8636C509.219 66.9328 508.707 67.136 508.268 67.4545Z" fill="#27282A"/>
</g>
<path opacity="0.15" d="M372.932 158.804V144.136C372.997 142.537 373.471 140.982 374.31 139.619L380.06 142.919C379.228 144.278 378.763 145.829 378.711 147.422V162.206L372.932 158.804Z" fill="black"/>
<path d="M485.607 86.8746C484.794 87.5167 484.141 88.338 483.698 89.2743C483.255 90.2106 483.035 91.2367 483.054 92.2722C483.054 94.443 484.198 95.543 485.607 94.7363C486.419 94.0905 487.071 93.2664 487.514 92.3279C487.956 91.3893 488.177 90.3615 488.159 89.3241C488.159 87.1386 487.015 86.0532 485.607 86.8746Z" fill="#3BE400"/>
<path d="M494.803 81.5506C493.99 82.1957 493.337 83.0196 492.894 83.9583C492.452 84.897 492.232 85.9252 492.251 86.9629C492.251 89.1336 493.395 90.2337 494.803 89.4123C495.621 88.7711 496.277 87.9479 496.72 87.0083C497.163 86.0686 497.381 85.0386 497.355 84.0001C497.355 81.8293 496.226 80.7292 494.803 81.5506Z" fill="#3BE400"/>
<path d="M503.999 76.2265C503.187 76.8723 502.534 77.6964 502.092 78.6349C501.649 79.5735 501.428 80.6012 501.447 81.6387C501.447 83.8095 502.591 84.9095 503.999 84.0882C504.816 83.4491 505.473 82.6288 505.919 81.692C506.364 80.7553 506.586 79.7277 506.566 78.6906C506.566 76.5198 505.422 75.4051 503.999 76.2265Z" fill="#3BE400"/>
<path opacity="0.9" d="M380.369 367.828L379.812 367.505L378.418 366.728L377.656 366.288L376.468 365.613C376.086 365.379 375.734 365.188 375.47 365.041C375.206 364.895 375.001 364.777 374.913 364.733C374.612 364.579 374.348 364.365 374.135 364.102C373.887 363.834 373.684 363.527 373.534 363.193C373.181 362.446 373 361.629 373.006 360.802V158.789L378.785 162.177V364.029C378.808 364.813 378.967 365.587 379.254 366.317C379.446 366.768 379.731 367.173 380.09 367.505C380.155 367.597 380.241 367.672 380.34 367.725C380.344 367.761 380.354 367.796 380.369 367.828Z" fill="#141416"/>
<path d="M389.814 174.454C389.827 174.16 389.908 173.874 390.049 173.617L393.305 166.885C393.335 166.809 393.386 166.743 393.452 166.694V166.621C393.49 166.593 393.536 166.577 393.584 166.577C393.632 166.577 393.678 166.593 393.716 166.621C393.755 166.665 393.784 166.716 393.802 166.771C393.82 166.827 393.825 166.886 393.819 166.944V169.276C393.846 169.51 393.846 169.746 393.819 169.98C393.757 170.191 393.678 170.397 393.584 170.596L391.868 174.146L393.584 175.73C393.684 175.825 393.764 175.94 393.819 176.067C393.849 176.276 393.849 176.488 393.819 176.698V178.956C393.82 179.114 393.785 179.269 393.716 179.411C393.66 179.537 393.568 179.645 393.452 179.719C393.429 179.73 393.404 179.735 393.379 179.735C393.353 179.735 393.328 179.73 393.305 179.719L390.049 176.786C389.968 176.715 389.905 176.627 389.864 176.527C389.823 176.428 389.806 176.321 389.814 176.214V174.454Z" fill="#8E93A9"/>
<path d="M401.709 157.542C401.766 157.313 401.85 157.092 401.958 156.882C402.059 156.662 402.229 156.482 402.442 156.369L403.66 155.665C403.676 155.648 403.696 155.635 403.717 155.626C403.738 155.617 403.761 155.613 403.784 155.613C403.808 155.613 403.831 155.617 403.852 155.626C403.873 155.635 403.893 155.648 403.909 155.665C403.951 155.707 403.983 155.757 404.003 155.813C404.023 155.869 404.031 155.928 404.026 155.987C404.039 156.07 404.039 156.154 404.026 156.237L398.453 179.998C398.403 180.222 398.324 180.439 398.218 180.643C398.119 180.871 397.95 181.061 397.734 181.186L396.561 181.86C396.526 181.89 396.482 181.907 396.436 181.907C396.39 181.907 396.346 181.89 396.311 181.86C396.229 181.768 396.187 181.647 396.194 181.523C396.189 181.44 396.189 181.357 396.194 181.274L401.709 157.542Z" fill="#8E93A9"/>
<path d="M410.334 164.29C410.328 164.582 410.253 164.868 410.114 165.126L406.858 171.858C406.818 171.933 406.769 172.002 406.711 172.063H406.623C406.587 172.091 406.544 172.105 406.498 172.105C406.453 172.105 406.41 172.091 406.374 172.063C406.297 171.968 406.26 171.847 406.271 171.726V169.467C406.244 169.233 406.244 168.997 406.271 168.763C406.327 168.55 406.405 168.343 406.506 168.147L408.222 164.598L406.506 163.028C406.403 162.929 406.323 162.809 406.271 162.676C406.241 162.467 406.241 162.255 406.271 162.045V159.787C406.272 159.629 406.307 159.474 406.374 159.332C406.429 159.21 406.515 159.104 406.623 159.024H406.711C406.711 159.024 406.799 159.024 406.858 159.024L410.114 161.957C410.193 162.032 410.255 162.123 410.293 162.225C410.331 162.327 410.345 162.436 410.334 162.544V164.29Z" fill="#8E93A9"/>
<path d="M419.369 162.72C419.415 162.684 419.472 162.665 419.531 162.665C419.589 162.665 419.646 162.684 419.692 162.72C419.74 162.776 419.777 162.841 419.799 162.912C419.822 162.982 419.83 163.056 419.824 163.13V165.609C419.824 165.803 419.779 165.993 419.692 166.166C419.629 166.329 419.516 166.468 419.369 166.562L417.903 167.442C417.861 167.483 417.806 167.505 417.749 167.505C417.691 167.505 417.636 167.483 417.594 167.442C417.545 167.39 417.508 167.327 417.485 167.259C417.462 167.191 417.455 167.118 417.462 167.046V164.553C417.464 164.36 417.509 164.169 417.594 163.996C417.657 163.841 417.764 163.708 417.903 163.614L419.369 162.72Z" fill="#8E93A9"/>
<path d="M424.503 159.771C424.548 159.733 424.605 159.712 424.664 159.712C424.723 159.712 424.78 159.733 424.825 159.771C424.873 159.827 424.91 159.893 424.933 159.963C424.955 160.034 424.964 160.108 424.957 160.182V162.661C424.957 162.854 424.912 163.045 424.825 163.218C424.763 163.381 424.65 163.52 424.503 163.614L423.036 164.494C422.99 164.53 422.933 164.549 422.875 164.549C422.816 164.549 422.759 164.53 422.713 164.494C422.665 164.438 422.629 164.372 422.606 164.302C422.583 164.231 422.575 164.157 422.581 164.083V161.59C422.585 161.397 422.63 161.207 422.713 161.033C422.776 160.873 422.889 160.739 423.036 160.651L424.503 159.771Z" fill="#8E93A9"/>
<path d="M429.636 156.808C429.678 156.768 429.733 156.746 429.79 156.746C429.848 156.746 429.903 156.768 429.944 156.808C429.993 156.865 430.029 156.93 430.052 157.001C430.074 157.071 430.083 157.145 430.076 157.219V159.698C430.075 159.896 430.03 160.091 429.944 160.27C429.878 160.423 429.772 160.554 429.636 160.651L428.096 161.531C428.054 161.569 427.999 161.589 427.942 161.589C427.886 161.589 427.831 161.569 427.788 161.531C427.74 161.475 427.704 161.41 427.681 161.339C427.658 161.269 427.65 161.194 427.656 161.121V158.627C427.66 158.434 427.705 158.244 427.788 158.07C427.855 157.917 427.961 157.786 428.096 157.689L429.636 156.808Z" fill="#8E93A9"/>
<path d="M391.193 192.596L466.349 149.21C467.244 148.697 467.962 149.064 467.962 150.017C467.923 150.558 467.757 151.082 467.476 151.546C467.196 152.01 466.81 152.401 466.349 152.687L391.193 196.087C390.299 196.601 389.58 196.234 389.58 195.266C389.62 194.725 389.787 194.202 390.068 193.738C390.348 193.274 390.734 192.883 391.193 192.596Z" fill="#00D1FF"/>
<path d="M415.306 220.45L490.462 177.049C491.356 176.536 492.075 176.903 492.075 177.871C492.035 178.411 491.868 178.935 491.588 179.398C491.307 179.862 490.922 180.253 490.462 180.54L415.306 223.926C414.412 224.44 413.693 224.073 413.693 223.12C413.732 222.579 413.898 222.055 414.179 221.591C414.459 221.127 414.846 220.736 415.306 220.45Z" fill="#E0E0E0"/>
<path d="M415.306 234.369L451.285 213.615C452.165 213.101 452.884 213.468 452.884 214.436C452.846 214.973 452.681 215.494 452.403 215.955C452.125 216.417 451.742 216.806 451.285 217.091L415.306 237.86C414.412 238.359 413.693 238.007 413.693 237.039C413.733 236.498 413.9 235.975 414.18 235.511C414.461 235.047 414.846 234.656 415.306 234.369Z" fill="#E0E0E0"/>
<path d="M415.306 248.288L451.285 227.534C452.165 227.035 452.884 227.387 452.884 228.356C452.843 228.894 452.678 229.416 452.4 229.879C452.122 230.342 451.741 230.735 451.285 231.025L415.306 251.779C414.412 252.293 413.693 251.926 413.693 250.958C413.733 250.417 413.9 249.894 414.18 249.43C414.461 248.966 414.846 248.575 415.306 248.288Z" fill="#E0E0E0"/>
<path d="M472.582 145.618L502.518 128.208C503.412 127.694 504.131 128.061 504.131 129.014C504.092 129.555 503.926 130.079 503.645 130.543C503.365 131.007 502.978 131.398 502.518 131.684L472.582 149.035C471.687 149.549 470.968 149.182 470.968 148.228C471.016 147.698 471.187 147.186 471.467 146.733C471.747 146.28 472.129 145.898 472.582 145.618Z" fill="#00D1FF"/>
<path d="M391.193 345.739L466.349 302.353C467.244 301.839 467.962 302.206 467.962 303.159C467.923 303.7 467.757 304.224 467.476 304.688C467.196 305.152 466.81 305.543 466.349 305.829L391.193 349.229C390.299 349.728 389.58 349.376 389.58 348.408C389.62 347.868 389.787 347.344 390.068 346.88C390.348 346.417 390.734 346.025 391.193 345.739Z" fill="#8E93A9"/>
<path d="M472.582 298.744L502.518 281.393C503.412 280.879 504.131 281.246 504.131 282.214C504.091 282.755 503.924 283.278 503.644 283.742C503.363 284.206 502.978 284.597 502.518 284.884L472.582 302.235C471.687 302.748 470.968 302.382 470.968 301.414C471.008 300.873 471.175 300.35 471.456 299.886C471.736 299.422 472.122 299.031 472.582 298.744Z" fill="#8E93A9"/>
<path d="M472.582 257.06L502.518 239.679C503.412 239.166 504.131 239.533 504.131 240.486C504.092 241.027 503.926 241.551 503.645 242.015C503.365 242.479 502.978 242.869 502.518 243.155L472.582 260.507C471.687 261.02 470.968 260.654 470.968 259.7C471.012 259.164 471.18 258.647 471.461 258.188C471.741 257.729 472.125 257.343 472.582 257.06Z" fill="#D23BC4"/>
<path d="M472.582 270.979L502.518 253.627C503.412 253.114 504.131 253.481 504.131 254.434C504.092 254.975 503.926 255.499 503.645 255.963C503.365 256.427 502.978 256.818 502.518 257.104L472.582 274.455C471.687 274.968 470.968 274.602 470.968 273.648C471.007 273.108 471.174 272.584 471.454 272.12C471.735 271.656 472.121 271.265 472.582 270.979Z" fill="#8E93A9"/>
<path d="M391.193 331.834L466.349 288.433C467.244 287.934 467.962 288.286 467.962 289.254C467.922 289.795 467.755 290.318 467.475 290.782C467.195 291.246 466.809 291.637 466.349 291.924L391.193 335.31C390.299 335.823 389.58 335.457 389.58 334.503C389.619 333.962 389.786 333.439 390.066 332.975C390.346 332.511 390.733 332.12 391.193 331.834Z" fill="#F5F5F5"/>
<path d="M447.047 271.757L463.87 262.047C464.75 261.534 465.469 261.9 465.469 262.854C465.431 263.393 465.266 263.915 464.988 264.379C464.71 264.843 464.328 265.235 463.87 265.523L447.047 275.233C446.152 275.746 445.434 275.394 445.434 274.426C445.473 273.885 445.639 273.362 445.92 272.898C446.2 272.434 446.586 272.043 447.047 271.757Z" fill="#00D1FF"/>
<path d="M391.193 206.56L435.034 181.23C435.914 180.716 436.633 181.083 436.633 182.036C436.594 182.575 436.43 183.098 436.152 183.562C435.874 184.025 435.491 184.417 435.034 184.706L391.193 210.036C390.299 210.55 389.58 210.183 389.58 209.23C389.619 208.689 389.786 208.165 390.066 207.701C390.346 207.237 390.733 206.846 391.193 206.56Z" fill="#8E93A9"/>
<path opacity="0.6" d="M391.193 206.56L435.034 181.23C435.914 180.716 436.633 181.083 436.633 182.036C436.594 182.575 436.43 183.098 436.152 183.562C435.874 184.025 435.491 184.417 435.034 184.706L391.193 210.036C390.299 210.55 389.58 210.183 389.58 209.23C389.619 208.689 389.786 208.165 390.066 207.701C390.346 207.237 390.733 206.846 391.193 206.56Z" fill="#FF00D6"/>
<path d="M391.193 220.451L406.066 211.812C406.946 211.298 407.665 211.665 407.665 212.633C407.624 213.172 407.458 213.693 407.181 214.157C406.903 214.62 406.522 215.012 406.066 215.302L391.193 223.898C390.299 224.411 389.58 224.044 389.58 223.076C389.627 222.543 389.797 222.029 390.077 221.573C390.357 221.117 390.739 220.733 391.193 220.451Z" fill="#8E93A9"/>
<path opacity="0.6" d="M391.193 220.451L406.066 211.812C406.946 211.298 407.665 211.665 407.665 212.633C407.624 213.172 407.458 213.693 407.181 214.157C406.903 214.62 406.522 215.012 406.066 215.302L391.193 223.898C390.299 224.411 389.58 224.044 389.58 223.076C389.627 222.543 389.797 222.029 390.077 221.573C390.357 221.117 390.739 220.733 391.193 220.451Z" fill="#27282A"/>
<path d="M391.193 234.384L406.066 225.774C406.946 225.261 407.665 225.627 407.665 226.595C407.624 227.134 407.458 227.656 407.181 228.119C406.903 228.582 406.522 228.975 406.066 229.265L391.193 237.86C390.299 238.373 389.58 238.007 389.58 237.039C389.619 236.5 389.786 235.978 390.066 235.516C390.347 235.055 390.733 234.666 391.193 234.384Z" fill="#8E93A9"/>
<path opacity="0.6" d="M391.193 234.384L406.066 225.774C406.946 225.261 407.665 225.627 407.665 226.595C407.624 227.134 407.458 227.656 407.181 228.119C406.903 228.582 406.522 228.975 406.066 229.265L391.193 237.86C390.299 238.373 389.58 238.007 389.58 237.039C389.619 236.5 389.786 235.978 390.066 235.516C390.347 235.055 390.733 234.666 391.193 234.384Z" fill="#D23BC4"/>
<path d="M391.193 248.304L406.066 239.679C406.946 239.166 407.665 239.518 407.665 240.486C407.626 241.025 407.462 241.548 407.184 242.011C406.906 242.475 406.523 242.867 406.066 243.155L391.193 251.75C390.299 252.264 389.58 251.897 389.58 250.944C389.624 250.408 389.792 249.89 390.072 249.432C390.353 248.973 390.737 248.587 391.193 248.304Z" fill="#8E93A9"/>
<path opacity="0.6" d="M391.193 248.304L406.066 239.679C406.946 239.166 407.665 239.518 407.665 240.486C407.626 241.025 407.462 241.548 407.184 242.011C406.906 242.475 406.523 242.867 406.066 243.155L391.193 251.75C390.299 252.264 389.58 251.897 389.58 250.944C389.624 250.408 389.792 249.89 390.072 249.432C390.353 248.973 390.737 248.587 391.193 248.304Z" fill="#CFD444"/>
<path d="M391.193 262.223L406.066 253.627C406.946 253.114 407.665 253.481 407.665 254.434C407.626 254.973 407.462 255.496 407.184 255.96C406.906 256.423 406.523 256.815 406.066 257.104L391.193 265.699C390.299 266.212 389.58 265.845 389.58 264.892C389.619 264.351 389.786 263.827 390.066 263.363C390.346 262.899 390.733 262.508 391.193 262.223Z" fill="#8E93A9"/>
<path opacity="0.6" d="M391.193 262.223L406.066 253.627C406.946 253.114 407.665 253.481 407.665 254.434C407.626 254.973 407.462 255.496 407.184 255.96C406.906 256.423 406.523 256.815 406.066 257.104L391.193 265.699C390.299 266.212 389.58 265.845 389.58 264.892C389.619 264.351 389.786 263.827 390.066 263.363C390.346 262.899 390.733 262.508 391.193 262.223Z" fill="#27282A"/>
<path d="M441.253 177.636L460.32 166.665C461.2 166.152 461.934 166.518 461.934 167.472C461.892 168.012 461.725 168.535 461.445 168.999C461.164 169.462 460.779 169.854 460.32 170.141L441.253 181.112C440.373 181.626 439.654 181.259 439.654 180.306C439.692 179.767 439.857 179.244 440.135 178.78C440.413 178.317 440.795 177.925 441.253 177.636Z" fill="#8E93A9"/>
<path opacity="0.6" d="M441.253 177.636L460.32 166.665C461.2 166.152 461.934 166.518 461.934 167.472C461.892 168.012 461.725 168.535 461.445 168.999C461.164 169.462 460.779 169.854 460.32 170.141L441.253 181.112C440.373 181.626 439.654 181.259 439.654 180.306C439.692 179.767 439.857 179.244 440.135 178.78C440.413 178.317 440.795 177.925 441.253 177.636Z" fill="#27282A"/>
<path d="M433.464 251.75L477.232 226.478C478.112 225.965 478.831 226.331 478.831 227.299C478.79 227.838 478.624 228.36 478.347 228.823C478.069 229.286 477.687 229.679 477.232 229.969L433.464 255.241C432.584 255.754 431.851 255.387 431.851 254.419C431.891 253.879 432.058 253.356 432.339 252.892C432.619 252.428 433.005 252.037 433.464 251.75Z" fill="#F5F5F5"/>
<path d="M458.678 251.135L502.519 225.804C503.413 225.291 504.132 225.658 504.132 226.611C504.093 227.152 503.926 227.676 503.646 228.14C503.366 228.604 502.979 228.995 502.519 229.28L458.678 254.611C457.798 255.124 457.079 254.758 457.079 253.804C457.118 253.265 457.282 252.743 457.56 252.279C457.838 251.815 458.221 251.423 458.678 251.135Z" fill="#F5F5F5"/>
<path d="M483.464 222.826L502.532 211.855C503.427 211.342 504.145 211.708 504.145 212.676C504.105 213.217 503.938 213.74 503.658 214.204C503.378 214.668 502.992 215.059 502.532 215.346L483.464 226.317C482.57 226.816 481.851 226.464 481.851 225.496C481.891 224.955 482.058 224.432 482.339 223.968C482.619 223.504 483.005 223.113 483.464 222.826Z" fill="#F5F5F5"/>
<path d="M415.306 206.531L459.147 181.2C460.027 180.687 460.746 181.054 460.746 182.022C460.705 182.56 460.539 183.082 460.262 183.545C459.984 184.009 459.603 184.401 459.147 184.691L415.306 210.007C414.412 210.52 413.693 210.168 413.693 209.2C413.733 208.66 413.9 208.136 414.18 207.673C414.461 207.209 414.846 206.818 415.306 206.531Z" fill="#8E93A9"/>
<path opacity="0.6" d="M415.306 206.531L459.147 181.2C460.027 180.687 460.746 181.054 460.746 182.022C460.705 182.56 460.539 183.082 460.262 183.545C459.984 184.009 459.603 184.401 459.147 184.691L415.306 210.007C414.412 210.52 413.693 210.168 413.693 209.2C413.733 208.66 413.9 208.136 414.18 207.673C414.461 207.209 414.846 206.818 415.306 206.531Z" fill="#FAFF00"/>
<path d="M465.366 177.606L484.433 166.635C485.328 166.122 486.047 166.489 486.047 167.442C486.008 167.983 485.841 168.507 485.561 168.971C485.28 169.435 484.894 169.826 484.433 170.111L465.366 181.083C464.486 181.596 463.767 181.229 463.767 180.276C463.806 179.737 463.97 179.214 464.248 178.751C464.526 178.287 464.909 177.895 465.366 177.606Z" fill="#8E93A9"/>
<path opacity="0.6" d="M465.366 177.606L484.433 166.635C485.328 166.122 486.047 166.489 486.047 167.442C486.008 167.983 485.841 168.507 485.561 168.971C485.28 169.435 484.894 169.826 484.433 170.111L465.366 181.083C464.486 181.596 463.767 181.229 463.767 180.276C463.806 179.737 463.97 179.214 464.248 178.751C464.526 178.287 464.909 177.895 465.366 177.606Z" fill="#27282A"/>
<path d="M605.38 80.4355V63.6707L591.285 62.4533C591.082 62.4214 590.874 62.463 590.698 62.5707C590.141 62.864 576.794 70.5057 576.632 70.6084C576.5 70.686 576.386 70.7924 576.3 70.9197C576.214 71.0471 576.158 71.1921 576.135 71.3441C576.113 71.4962 576.124 71.6513 576.17 71.7981C576.215 71.945 576.293 72.0797 576.398 72.1924L591.344 88.3999L605.38 80.4355Z" fill="#8E93A9"/>
<path d="M591.343 88.4588L576.397 72.2513C576.259 72.0967 576.171 71.9046 576.143 71.6995C576.115 71.4945 576.149 71.2858 576.241 71.1001C576.332 70.9144 576.476 70.7601 576.656 70.6569C576.835 70.5536 577.041 70.5062 577.248 70.5206L591.343 71.7526V88.4588Z" fill="#8E93A9"/>
<path d="M605.365 63.6709L591.343 71.7086L577.204 70.5205C577.039 70.4899 576.87 70.4899 576.705 70.5205C577.834 69.8605 590.14 62.8202 590.639 62.5562C590.821 62.4509 591.032 62.4096 591.24 62.4388L605.365 63.6709Z" fill="#8E93A9"/>
<path opacity="0.5" d="M605.365 63.6709L591.343 71.7086L577.204 70.5205C577.039 70.4899 576.87 70.4899 576.705 70.5205C577.834 69.8605 590.14 62.8202 590.639 62.5562C590.821 62.4509 591.032 62.4096 591.24 62.4388L605.365 63.6709Z" fill="#27282A"/>
<path d="M591.373 52.9196C591.472 51.158 591.982 49.4441 592.864 47.9157C593.745 46.3873 594.973 45.087 596.448 44.1192L600.584 41.6698C602.158 40.8675 603.9 40.4492 605.666 40.4492C607.433 40.4492 609.175 40.8675 610.749 41.6698L654.853 67.1909C656.335 68.1527 657.569 69.4513 658.453 70.9808C659.338 72.5102 659.848 74.2271 659.943 75.9914V126.946C659.847 128.71 659.336 130.426 658.452 131.955C657.568 133.485 656.335 134.783 654.853 135.746L650.717 138.137C649.141 138.932 647.4 139.347 645.635 139.347C643.869 139.347 642.129 138.932 640.553 138.137L627.543 130.613L610.617 120.873L596.448 112.689C594.969 111.725 593.739 110.425 592.858 108.896C591.976 107.367 591.467 105.651 591.373 103.889V52.9196Z" fill="#8E93A9"/>
<path opacity="0.2" d="M659.942 126.946C659.847 128.71 659.336 130.426 658.451 131.955C657.567 133.485 656.334 134.783 654.853 135.746L650.717 138.137C649.283 138.856 647.713 139.264 646.111 139.335C644.508 139.406 642.909 139.137 641.417 138.548C643.823 139.442 645.642 138.093 645.642 135.203V84.205C645.589 82.4351 645.084 80.7082 644.175 79.1888L658.446 71.0044C659.355 72.5238 659.86 74.2507 659.913 76.0206L659.942 126.946Z" fill="black"/>
<path opacity="0.5" d="M591.533 51.4682C592.135 49.3121 594.1 48.6228 596.447 50.0015L640.566 75.4053C642.069 76.3391 643.302 77.6484 644.145 79.2042L658.431 71.0051C657.588 69.4535 656.354 68.1491 654.852 67.221L610.762 41.6705C609.196 40.8869 607.468 40.479 605.717 40.479C603.965 40.479 602.238 40.8869 600.671 41.6705L596.52 44.0612C595.227 44.8901 594.118 45.9749 593.26 47.2488C592.403 48.5226 591.815 49.9586 591.533 51.4682Z" fill="#27282A"/>
<path d="M618.507 71.5177L601.713 69.1709L604.06 100.148L618.507 118.923V71.5177Z" fill="#AC8CD5"/>
<path d="M618.507 71.5181L635.301 88.5615L632.954 116.84L618.507 118.923V71.5181Z" fill="#141416"/>
<path d="M625.416 111.839L629.273 114.068L618.537 76.2412L607.815 101.674L611.658 103.904L613.975 98.3889L623.098 103.654L625.416 111.839ZM615.339 95.0594L618.507 87.5204L621.676 98.7263L615.339 95.0594Z" fill="#FAFAFA"/>
<path d="M605.38 175.539V158.848L591.285 157.615C591.082 157.599 590.879 157.639 590.698 157.733C590.141 158.026 576.793 165.668 576.632 165.77C576.499 165.85 576.386 165.957 576.299 166.086C576.213 166.215 576.157 166.361 576.135 166.514C576.112 166.667 576.124 166.823 576.169 166.971C576.215 167.119 576.293 167.255 576.398 167.369L591.344 183.503L605.38 175.539Z" fill="#8E93A9"/>
<path d="M591.343 183.562L576.397 167.428C576.252 167.276 576.156 167.083 576.124 166.875C576.092 166.667 576.125 166.454 576.218 166.265C576.31 166.076 576.459 165.921 576.643 165.819C576.828 165.717 577.039 165.675 577.248 165.697L591.343 166.929V183.562Z" fill="#EBEBEB"/>
<path d="M605.365 158.833L591.343 166.87L577.247 165.638C577.083 165.601 576.913 165.601 576.749 165.638C577.878 164.964 590.184 157.938 590.683 157.659C590.867 157.561 591.076 157.52 591.284 157.542L605.365 158.833Z" fill="#8E93A9"/>
<path d="M605.365 158.833L591.343 166.87L577.247 165.638C577.083 165.601 576.913 165.601 576.749 165.638C577.878 164.964 590.184 157.938 590.683 157.659C590.867 157.561 591.076 157.52 591.284 157.542L605.365 158.833Z" fill="#F5F5F5"/>
<path d="M591.373 148.023C591.467 146.26 591.976 144.545 592.858 143.016C593.739 141.486 594.969 140.187 596.448 139.223L600.584 136.832C602.158 136.03 603.9 135.611 605.666 135.611C607.433 135.611 609.175 136.03 610.749 136.832L654.853 162.294C656.335 163.257 657.568 164.556 658.452 166.085C659.336 167.614 659.847 169.331 659.943 171.095V222.078C659.848 223.843 659.338 225.56 658.453 227.089C657.569 228.618 656.335 229.917 654.853 230.879L650.717 233.27C649.143 234.072 647.402 234.49 645.635 234.49C643.868 234.49 642.127 234.072 640.553 233.27L627.543 225.76L610.617 215.977L596.448 207.807C594.971 206.841 593.742 205.541 592.861 204.012C591.979 202.484 591.469 200.769 591.373 199.007V148.023Z" fill="#EBEBEB"/>
<path d="M659.942 222.079C659.848 223.843 659.337 225.56 658.453 227.089C657.568 228.619 656.335 229.917 654.853 230.879L650.717 233.27C649.284 233.992 647.714 234.403 646.111 234.473C644.508 234.544 642.908 234.274 641.417 233.68C643.823 234.59 645.642 233.24 645.642 230.336V179.353C645.591 177.587 645.086 175.864 644.175 174.351L658.476 166.093C659.387 167.607 659.892 169.329 659.942 171.095V222.079Z" fill="#E0E0E0"/>
<path d="M591.533 146.571C592.135 144.415 594.1 143.726 596.447 145.104L640.566 170.567C642.069 171.501 643.302 172.81 644.145 174.366L658.431 166.123C657.588 164.567 656.355 163.257 654.852 162.324L610.762 136.847C609.186 136.051 607.445 135.637 605.68 135.637C603.914 135.637 602.174 136.051 600.598 136.847L596.447 139.237C595.176 140.065 594.085 141.142 593.241 142.402C592.396 143.662 591.815 145.081 591.533 146.571Z" fill="#F5F5F5"/>
<path d="M618.507 179.161L622.218 172.194L635.301 179.748L618.507 211.341L601.713 160.357L614.796 167.911L618.507 179.161Z" fill="#8E93A9"/>
<path opacity="0.15" d="M618.507 179.161L622.218 172.194L635.301 179.748L618.507 211.341L601.713 160.357L614.796 167.911L618.507 179.161Z" fill="black"/>
<path d="M618.506 179.177L614.796 167.927L608.929 164.553C613.608 178.766 618.477 193.521 618.477 193.521L628.011 175.568L622.144 172.195L618.506 179.177Z" fill="#141416"/>
<path d="M605.38 270.656V253.95L591.285 252.718C591.082 252.701 590.879 252.742 590.698 252.835L576.632 260.873C576.499 260.952 576.386 261.06 576.299 261.189C576.213 261.317 576.157 261.463 576.135 261.617C576.112 261.77 576.124 261.926 576.169 262.074C576.215 262.222 576.293 262.358 576.398 262.472L591.344 278.606L605.38 270.656Z" fill="#8E93A9"/>
<path d="M591.343 278.665L576.397 262.53C576.252 262.378 576.156 262.185 576.124 261.977C576.092 261.769 576.125 261.557 576.218 261.368C576.31 261.179 576.459 261.023 576.643 260.922C576.828 260.82 577.039 260.777 577.248 260.8L591.343 262.032V278.665Z" fill="#141416"/>
<path d="M605.365 253.95L591.343 261.973L577.247 260.741C577.083 260.704 576.913 260.704 576.749 260.741L590.683 252.762C590.869 252.67 591.077 252.629 591.284 252.645L605.365 253.95Z" fill="#8E93A9"/>
<path d="M605.365 253.95L591.343 261.973L577.247 260.741C577.083 260.704 576.913 260.704 576.749 260.741L590.683 252.762C590.869 252.67 591.077 252.629 591.284 252.645L605.365 253.95Z" fill="#AC8CD5"/>
<path d="M591.373 243.125C591.469 241.363 591.979 239.648 592.861 238.12C593.742 236.591 594.971 235.291 596.448 234.325L600.584 231.934C602.16 231.139 603.901 230.724 605.666 230.724C607.432 230.724 609.173 231.139 610.749 231.934L654.853 257.397C656.333 258.361 657.565 259.66 658.449 261.189C659.333 262.718 659.845 264.433 659.943 266.197V317.137C659.848 318.901 659.338 320.618 658.453 322.147C657.569 323.677 656.335 324.975 654.853 325.937L650.717 328.328C649.143 329.13 647.402 329.548 645.635 329.548C643.868 329.548 642.127 329.13 640.553 328.328L627.543 320.818L610.617 311.035L596.448 302.865C594.969 301.901 593.739 300.601 592.858 299.072C591.976 297.543 591.467 295.828 591.373 294.065V243.125Z" fill="#141416"/>
<path d="M659.942 317.151C659.848 318.915 659.337 320.632 658.453 322.162C657.568 323.691 656.335 324.99 654.853 325.952L650.717 328.342C649.284 329.065 647.714 329.475 646.111 329.546C644.508 329.617 642.908 329.347 641.417 328.753C643.823 329.662 645.642 328.313 645.642 325.409V274.469C645.589 272.699 645.084 270.972 644.175 269.453L658.476 261.195C659.385 262.715 659.89 264.442 659.942 266.212V317.151Z" fill="#263238"/>
<path d="M591.533 241.688C592.135 239.532 594.1 238.843 596.447 240.221L640.566 265.699C642.068 266.627 643.302 267.931 644.145 269.483L658.431 261.24C657.588 259.684 656.355 258.375 654.852 257.441L610.762 231.964C609.186 231.168 607.445 230.754 605.68 230.754C603.914 230.754 602.174 231.168 600.598 231.964L596.447 234.369C595.175 235.194 594.085 236.267 593.24 237.525C592.396 238.783 591.815 240.199 591.533 241.688Z" fill="#AC8CD5"/>
<path d="M628.319 282.053C629.36 276.773 628.935 271.918 626.852 269.161C626.406 268.514 625.811 267.984 625.116 267.616C624.422 267.249 623.649 267.054 622.863 267.049H622.496C621.094 267.186 619.753 267.692 618.609 268.515C615.676 262.971 612.742 259.568 610.645 259.568H610.337C610.055 259.623 609.79 259.741 609.561 259.914C609.332 260.087 609.146 260.31 609.017 260.566C608.005 262.252 607.946 265.905 608.709 270.701C606.89 270.19 604.95 270.33 603.223 271.097C602.671 271.419 602.219 271.889 601.919 272.454C601.618 273.019 601.481 273.656 601.522 274.294C601.522 277.477 604.323 281.848 608.679 286.028C607.638 291.309 608.063 296.163 610.146 298.921C610.597 299.514 611.16 300.012 611.804 300.388C612.507 300.796 613.307 301.009 614.121 301.004C614.647 301 615.17 300.926 615.676 300.784C616.685 300.455 617.632 299.959 618.477 299.317C620.839 303.717 623.2 306.9 625.092 308C625.534 308.274 626.04 308.426 626.559 308.44C626.656 308.454 626.755 308.454 626.852 308.44C627.136 308.386 627.403 308.268 627.634 308.095C627.866 307.922 628.055 307.699 628.187 307.443C629.199 305.756 629.243 302.104 628.48 297.278C629.25 297.423 630.03 297.502 630.812 297.513C631.856 297.555 632.893 297.322 633.819 296.838C634.37 296.514 634.821 296.044 635.122 295.48C635.422 294.915 635.56 294.279 635.521 293.641C635.477 290.59 632.675 286.219 628.319 282.053ZM623.288 290.546C622.796 291.429 622.258 292.286 621.675 293.113C620.707 292.643 619.68 292.115 618.595 291.485C617.509 290.854 616.468 290.208 615.485 289.534C614.913 288.067 614.341 286.512 613.798 284.899C613.256 283.285 612.786 281.789 612.332 280.323C612.742 279.413 613.182 278.504 613.681 277.609C614.18 276.714 614.737 275.834 615.28 275.042C616.262 275.512 617.289 276.04 618.375 276.67C619.46 277.301 620.604 278.02 621.645 278.724C622.217 280.191 622.775 281.657 623.332 283.344C623.889 285.031 624.285 286.278 624.681 287.656C624.3 288.61 623.816 289.548 623.288 290.546ZM624.755 283.051C624.432 282.083 624.095 281.129 623.757 280.205C624.74 280.939 625.664 281.672 626.53 282.464C626.266 283.476 625.958 284.518 625.576 285.559C625.283 284.738 625.019 283.901 624.725 283.051H624.755ZM618.624 274.778C617.871 274.348 617.138 273.952 616.424 273.59C617.058 272.802 617.755 272.067 618.507 271.39C619.196 272.784 619.9 274.324 620.604 275.981C619.929 275.57 619.269 275.16 618.595 274.778H618.624ZM612.39 276.069C612.126 276.553 611.862 277.037 611.628 277.536C611.232 275.996 610.894 274.602 610.63 273.209C611.626 273.491 612.606 273.829 613.564 274.221C613.094 274.881 612.713 275.424 612.405 276.069H612.39ZM612.39 285.192C612.728 286.175 613.065 287.128 613.417 288.126C612.376 287.348 611.393 286.542 610.484 285.735C610.77 284.618 611.112 283.517 611.51 282.435C611.804 283.315 612.097 284.239 612.405 285.148L612.39 285.192ZM618.375 293.377C619.123 293.802 619.841 294.183 620.56 294.55C619.956 295.309 619.294 296.02 618.58 296.677C617.905 295.327 617.23 293.861 616.57 292.277C617.186 292.643 617.788 293.025 618.404 293.377H618.375ZM624.608 292.086C624.916 291.543 625.195 291 625.459 290.443C625.884 292.057 626.236 293.582 626.515 294.99C625.488 294.698 624.479 294.346 623.493 293.934C623.904 293.347 624.285 292.731 624.637 292.086H624.608ZM622.613 277.419C621.631 274.91 620.604 272.608 619.577 270.54C620.315 269.988 621.144 269.571 622.027 269.307C622.433 269.194 622.852 269.134 623.273 269.131C623.864 269.117 624.447 269.264 624.96 269.557C625.346 269.789 625.685 270.093 625.958 270.452C627.351 272.3 627.732 276.186 626.852 280.719C625.516 279.539 624.121 278.427 622.672 277.389L622.613 277.419ZM614.502 272.74C613.11 272.112 611.674 271.587 610.205 271.17C609.471 266.623 609.559 263.499 610.293 262.282C610.344 262.137 610.429 262.007 610.542 261.902C610.654 261.797 610.79 261.721 610.938 261.68H611.07C611.353 261.696 611.627 261.787 611.862 261.944C613.256 262.751 615.265 265.362 617.451 269.439C616.361 270.42 615.382 271.517 614.532 272.71L614.502 272.74ZM610.66 279.589C609.997 281.15 609.452 282.758 609.031 284.4C605.277 280.763 603.032 277.243 603.032 275.086C603.017 274.687 603.113 274.292 603.31 273.945C603.507 273.597 603.797 273.312 604.147 273.121C604.92 272.736 605.778 272.555 606.641 272.593C607.45 272.604 608.256 272.697 609.046 272.872C609.471 274.881 610.014 277.169 610.689 279.56L610.66 279.589ZM614.488 290.912C615.456 293.318 616.453 295.562 617.421 297.615C616.406 298.42 615.187 298.928 613.901 299.082C613.341 299.138 612.776 299.047 612.261 298.818C611.747 298.589 611.301 298.23 610.968 297.777C609.574 295.914 609.193 292.027 610.073 287.51C611.491 288.715 612.974 289.842 614.517 290.883L614.488 290.912ZM622.437 295.474C623.86 296.125 625.331 296.665 626.838 297.087C627.586 301.649 627.498 304.788 626.764 306.02C626.699 306.15 626.606 306.265 626.492 306.356C626.378 306.447 626.246 306.513 626.104 306.548C624.769 306.783 622.261 303.805 619.519 298.628C620.618 297.67 621.607 296.592 622.467 295.415L622.437 295.474ZM626.368 288.434C626.964 286.93 627.454 285.386 627.835 283.813C631.59 287.451 633.834 290.971 633.834 293.127C633.846 293.526 633.749 293.92 633.552 294.266C633.356 294.613 633.068 294.899 632.719 295.093C631.21 295.711 629.538 295.809 627.967 295.371C627.659 293.201 627.072 290.868 626.398 288.404L626.368 288.434Z" fill="#8E93A9"/>
<path d="M621.484 285.793C621.484 287.993 620.149 289.005 618.551 288.052C617.65 287.396 616.915 286.539 616.406 285.548C615.896 284.557 615.626 283.46 615.617 282.346C615.617 280.161 616.952 279.149 618.551 280.102C619.45 280.756 620.183 281.612 620.692 282.6C621.202 283.588 621.473 284.682 621.484 285.793Z" fill="#8E93A9"/>
<g opacity="0.65">
<path d="M628.319 282.053C629.36 276.773 628.935 271.918 626.852 269.161C626.406 268.514 625.811 267.984 625.116 267.616C624.422 267.249 623.649 267.054 622.863 267.049H622.496C621.094 267.186 619.753 267.692 618.609 268.515C615.676 262.971 612.742 259.568 610.645 259.568H610.337C610.055 259.623 609.79 259.741 609.561 259.914C609.332 260.087 609.146 260.31 609.017 260.566C608.005 262.252 607.946 265.905 608.709 270.701C606.89 270.19 604.95 270.33 603.223 271.097C602.671 271.419 602.219 271.889 601.919 272.454C601.618 273.019 601.481 273.656 601.522 274.294C601.522 277.477 604.323 281.848 608.679 286.028C607.638 291.309 608.063 296.163 610.146 298.921C610.597 299.514 611.16 300.012 611.804 300.388C612.507 300.796 613.307 301.009 614.121 301.004C614.647 301 615.17 300.926 615.676 300.784C616.685 300.455 617.632 299.959 618.477 299.317C620.839 303.717 623.2 306.9 625.092 308C625.534 308.274 626.04 308.426 626.559 308.44C626.656 308.454 626.755 308.454 626.852 308.44C627.136 308.386 627.403 308.268 627.634 308.095C627.866 307.922 628.055 307.699 628.187 307.443C629.199 305.756 629.243 302.104 628.48 297.278C629.25 297.423 630.03 297.502 630.812 297.513C631.856 297.555 632.893 297.322 633.819 296.838C634.37 296.514 634.821 296.044 635.122 295.48C635.422 294.915 635.56 294.279 635.521 293.641C635.477 290.59 632.675 286.219 628.319 282.053ZM623.288 290.546C622.796 291.429 622.258 292.286 621.675 293.113C620.707 292.643 619.68 292.115 618.595 291.485C617.509 290.854 616.468 290.208 615.485 289.534C614.913 288.067 614.341 286.512 613.798 284.899C613.256 283.285 612.786 281.789 612.332 280.323C612.742 279.413 613.182 278.504 613.681 277.609C614.18 276.714 614.737 275.834 615.28 275.042C616.262 275.512 617.289 276.04 618.375 276.67C619.46 277.301 620.604 278.02 621.645 278.724C622.217 280.191 622.775 281.657 623.332 283.344C623.889 285.031 624.285 286.278 624.681 287.656C624.3 288.61 623.816 289.548 623.288 290.546ZM624.755 283.051C624.432 282.083 624.095 281.129 623.757 280.205C624.74 280.939 625.664 281.672 626.53 282.464C626.266 283.476 625.958 284.518 625.576 285.559C625.283 284.738 625.019 283.901 624.725 283.051H624.755ZM618.624 274.778C617.871 274.348 617.138 273.952 616.424 273.59C617.058 272.802 617.755 272.067 618.507 271.39C619.196 272.784 619.9 274.324 620.604 275.981C619.929 275.57 619.269 275.16 618.595 274.778H618.624ZM612.39 276.069C612.126 276.553 611.862 277.037 611.628 277.536C611.232 275.996 610.894 274.602 610.63 273.209C611.626 273.491 612.606 273.829 613.564 274.221C613.094 274.881 612.713 275.424 612.405 276.069H612.39ZM612.39 285.192C612.728 286.175 613.065 287.128 613.417 288.126C612.376 287.348 611.393 286.542 610.484 285.735C610.77 284.618 611.112 283.517 611.51 282.435C611.804 283.315 612.097 284.239 612.405 285.148L612.39 285.192ZM618.375 293.377C619.123 293.802 619.841 294.183 620.56 294.55C619.956 295.309 619.294 296.02 618.58 296.677C617.905 295.327 617.23 293.861 616.57 292.277C617.186 292.643 617.788 293.025 618.404 293.377H618.375ZM624.608 292.086C624.916 291.543 625.195 291 625.459 290.443C625.884 292.057 626.236 293.582 626.515 294.99C625.488 294.698 624.479 294.346 623.493 293.934C623.904 293.347 624.285 292.731 624.637 292.086H624.608ZM622.613 277.419C621.631 274.91 620.604 272.608 619.577 270.54C620.315 269.988 621.144 269.571 622.027 269.307C622.433 269.194 622.852 269.134 623.273 269.131C623.864 269.117 624.447 269.264 624.96 269.557C625.346 269.789 625.685 270.093 625.958 270.452C627.351 272.3 627.732 276.186 626.852 280.719C625.516 279.539 624.121 278.427 622.672 277.389L622.613 277.419ZM614.502 272.74C613.11 272.112 611.674 271.587 610.205 271.17C609.471 266.623 609.559 263.499 610.293 262.282C610.344 262.137 610.429 262.007 610.542 261.902C610.654 261.797 610.79 261.721 610.938 261.68H611.07C611.353 261.696 611.627 261.787 611.862 261.944C613.256 262.751 615.265 265.362 617.451 269.439C616.361 270.42 615.382 271.517 614.532 272.71L614.502 272.74ZM610.66 279.589C609.997 281.15 609.452 282.758 609.031 284.4C605.277 280.763 603.032 277.243 603.032 275.086C603.017 274.687 603.113 274.292 603.31 273.945C603.507 273.597 603.797 273.312 604.147 273.121C604.92 272.736 605.778 272.555 606.641 272.593C607.45 272.604 608.256 272.697 609.046 272.872C609.471 274.881 610.014 277.169 610.689 279.56L610.66 279.589ZM614.488 290.912C615.456 293.318 616.453 295.562 617.421 297.615C616.406 298.42 615.187 298.928 613.901 299.082C613.341 299.138 612.776 299.047 612.261 298.818C611.747 298.589 611.301 298.23 610.968 297.777C609.574 295.914 609.193 292.027 610.073 287.51C611.491 288.715 612.974 289.842 614.517 290.883L614.488 290.912ZM622.437 295.474C623.86 296.125 625.331 296.665 626.838 297.087C627.586 301.649 627.498 304.788 626.764 306.02C626.699 306.15 626.606 306.265 626.492 306.356C626.378 306.447 626.246 306.513 626.104 306.548C624.769 306.783 622.261 303.805 619.519 298.628C620.618 297.67 621.607 296.592 622.467 295.415L622.437 295.474ZM626.368 288.434C626.964 286.93 627.454 285.386 627.835 283.813C631.59 287.451 633.834 290.971 633.834 293.127C633.846 293.526 633.749 293.92 633.552 294.266C633.356 294.613 633.068 294.899 632.719 295.093C631.21 295.711 629.538 295.809 627.967 295.371C627.659 293.201 627.072 290.868 626.398 288.404L626.368 288.434Z" fill="#9FECF7"/>
<path d="M621.484 285.793C621.484 287.993 620.149 289.005 618.551 288.052C617.65 287.396 616.915 286.539 616.406 285.548C615.896 284.557 615.626 283.46 615.617 282.346C615.617 280.161 616.952 279.149 618.551 280.102C619.45 280.756 620.183 281.612 620.692 282.6C621.202 283.588 621.473 284.682 621.484 285.793Z" fill="#9FECF7"/>
</g>
<path d="M558.298 342.673C564.033 343.788 566.644 345.739 569.9 353.689C573.156 361.638 578.979 380.999 580.328 386.323C580.944 388.699 565.881 409.996 566.526 409.674C566.717 409.586 560.659 399.407 560.659 399.407L568.066 385.267L562.801 372.389L558.298 342.673Z" fill="#FFA8A7"/>
<path d="M556.361 342.791C556.361 342.791 561.582 341.852 565.044 344.727C568.505 347.601 569.034 349.523 571.38 355.419C573.727 361.315 577.57 373.607 577.57 373.607C577.57 373.607 576.455 380.207 565.704 381.512L556.493 360.758C556.493 360.758 553.281 348.217 556.361 342.791Z" fill="#8E93A9"/>
<path d="M545.566 513.093C545.244 514.957 545.36 516.87 545.904 518.682C546.856 520.892 548.424 522.781 550.421 524.123C551.868 525.467 553.13 526.995 554.176 528.67C555.198 530.511 556.522 532.167 558.092 533.569C559.31 534.625 562.757 534.728 564.414 534.024C566.071 533.32 566.643 532.703 566.541 530.049C566.438 527.394 558.386 526.485 558.386 526.485L545.566 513.093Z" fill="#AC8CD5"/>
<path d="M565.47 522.143C566.145 522.392 566.321 523.698 566.424 526.308C566.512 528.274 567.333 531.149 564.62 532.381C563.416 532.863 562.098 532.981 560.828 532.72C559.558 532.46 558.392 531.831 557.477 530.914C555.629 528.596 554.382 526.514 551.756 523.742C549.468 521.292 547.107 520.471 546.08 515.572C545.435 512.433 545.948 511.172 548.06 510.218C550.994 508.986 555.555 513.034 557.829 513.665C559.823 514.178 564.81 521.879 565.47 522.143Z" fill="#8E93A9"/>
<path opacity="0.2" d="M565.47 522.143C566.145 522.392 566.321 523.698 566.424 526.308C566.512 528.274 567.333 531.149 564.62 532.381C563.416 532.863 562.098 532.981 560.828 532.72C559.558 532.46 558.392 531.831 557.477 530.914C555.629 528.596 554.382 526.514 551.756 523.742C549.468 521.292 547.107 520.471 546.08 515.572C545.435 512.433 545.948 511.172 548.06 510.218C550.994 508.986 555.555 513.034 557.829 513.665C559.823 514.178 564.81 521.879 565.47 522.143Z" fill="black"/>
<path d="M557.857 513.621L557.476 513.489C556.153 513.56 554.872 513.98 553.764 514.706C552.656 515.433 551.761 516.44 551.169 517.625C550.788 518.491 551.976 519.092 552.636 518.491C553.267 517.341 554.171 516.364 555.268 515.645C556.365 514.927 557.622 514.489 558.928 514.369C558.623 514.053 558.26 513.798 557.857 513.621Z" fill="#FAFAFA"/>
<path d="M559.735 515.103C558.491 515.241 557.302 515.689 556.277 516.407C555.252 517.125 554.424 518.088 553.868 519.21C553.487 520.061 554.675 520.677 555.335 520.061C555.87 519.063 556.618 518.195 557.525 517.519C558.432 516.842 559.477 516.373 560.586 516.144C560.351 515.778 560.043 515.426 559.735 515.103Z" fill="#FAFAFA"/>
<path d="M508.971 553.296C508.531 555.496 509.323 556.64 512.168 558.283C515.903 560.126 520.212 560.427 524.166 559.119C528.86 557.755 531.104 555.716 533.055 555.217C535.005 554.719 539.831 554.689 541.752 554.132C543.674 553.575 543.645 552.577 543.645 550.26L508.971 553.296Z" fill="#AC8CD5"/>
<path d="M541.753 539.084C541.753 539.084 542.662 541.871 543.22 544.291C543.616 546.227 544.173 549.439 543.498 550.891C542.824 552.343 540.184 553.282 536.165 553.253C533.525 553.253 529.388 555.027 526.572 556.597C523.734 558 520.519 558.448 517.405 557.873C513.768 557.447 510.072 555.335 509.426 553.839C508.781 552.343 508.678 551.199 517.244 547.547C517.332 547.547 527.188 543.88 531.325 539.304L541.753 539.084Z" fill="#8E93A9"/>
<g opacity="0.2">
<path d="M541.753 539.084C541.753 539.084 542.662 541.871 543.22 544.291C543.616 546.227 544.173 549.439 543.498 550.891C542.824 552.343 540.184 553.282 536.165 553.253C533.525 553.253 529.388 555.027 526.572 556.597C523.734 558 520.519 558.448 517.405 557.873C513.768 557.447 510.072 555.335 509.426 553.839C508.781 552.343 508.678 551.199 517.244 547.547C517.332 547.547 527.188 543.88 531.325 539.304L541.753 539.084Z" fill="black"/>
</g>
<path d="M525.282 557.168C525.282 557.168 524.548 549.835 518.579 547.708C513.166 545.801 508.458 549.805 508.972 553.296C509.324 555.628 515.909 560.894 525.282 557.168Z" fill="#FAFAFA"/>
<path d="M520.089 546.329C521.612 546.47 523.045 547.109 524.167 548.148C525.898 549.614 525.942 550.553 525.942 550.553C526.075 550.69 526.247 550.782 526.435 550.815C526.623 550.848 526.817 550.822 526.989 550.739C527.16 550.656 527.302 550.522 527.393 550.354C527.484 550.186 527.52 549.994 527.496 549.805C527.496 549.805 527.1 546.094 522.216 545.405C521.81 545.316 521.385 545.357 521.003 545.523C520.622 545.689 520.302 545.971 520.089 546.329Z" fill="#FAFAFA"/>
<path d="M523.507 544.76C525.038 544.771 526.509 545.357 527.628 546.402C529.344 547.869 529.359 548.998 529.359 548.998C529.492 549.135 529.665 549.227 529.852 549.26C530.04 549.294 530.234 549.267 530.406 549.185C530.578 549.102 530.72 548.967 530.811 548.799C530.902 548.632 530.938 548.44 530.914 548.25C530.914 548.25 530.518 544.54 525.634 543.777C525.221 543.693 524.792 543.743 524.409 543.92C524.027 544.097 523.711 544.391 523.507 544.76Z" fill="#FAFAFA"/>
<path d="M526.895 542.751C528.424 542.659 529.932 543.146 531.119 544.115C532.938 545.435 533.026 546.579 533.026 546.579C533.169 546.694 533.344 546.762 533.526 546.776C533.709 546.79 533.892 546.748 534.051 546.656C534.209 546.564 534.336 546.426 534.415 546.261C534.494 546.095 534.521 545.91 534.493 545.728C534.493 545.728 533.833 542.047 528.904 541.622C528.494 541.579 528.08 541.664 527.72 541.867C527.36 542.069 527.072 542.378 526.895 542.751Z" fill="#FAFAFA"/>
<path d="M565.471 517.933V522.92C564.273 523.686 562.889 524.112 561.468 524.151C560.046 524.19 558.641 523.84 557.404 523.14C557.257 522.832 556.861 517.933 556.861 517.933H565.471Z" fill="#FFA8A7"/>
<path d="M541.753 535.637C541.753 535.637 541.753 538.013 541.753 539.362C541.753 540.712 540.169 542.736 536.032 542.589C533.099 542.486 531.104 541.694 531.207 539.304V535.857L541.753 535.637Z" fill="#FFA8A7"/>
<path d="M570.868 475.603C570.604 465.072 568.448 460.452 568.448 460.452C568.448 460.452 569.24 447.456 571 431.542C573.655 407.326 572.467 402.633 567.656 391.72C567.656 391.72 526.866 387.599 525.634 404.54C524.079 425.646 523.903 468.577 524.46 476.028C525.018 483.479 525.003 476.6 526.822 491.693C528.289 503.632 531.222 535.856 531.222 535.856C532.863 536.687 534.683 537.101 536.522 537.063C538.361 537.024 540.163 536.535 541.768 535.636C541.768 535.636 545.097 496.211 544.701 487.601C544.66 483.183 544.322 478.773 543.689 474.4C543.689 474.4 548.456 440.387 549.19 434.916C549.19 434.916 549.85 444.713 550.422 452.164C550.994 459.615 550.935 465.629 552.504 481.044C553.736 493.145 556.714 519.268 556.714 519.268C558.149 519.85 559.698 520.094 561.243 519.979C562.787 519.865 564.284 519.395 565.617 518.608C565.617 518.608 571.088 484.11 570.868 475.603Z" fill="#644689"/>
<path d="M547.458 519.15C547.458 519.15 547.678 513.283 555.555 512.521L556.009 512.77C555.122 511.35 553.744 510.306 552.137 509.836C551.073 509.449 549.913 509.409 548.824 509.723C547.736 510.037 546.775 510.687 546.08 511.582C544.701 513.298 546.094 518.021 547.458 519.15Z" fill="#FAFAFA"/>
<path d="M537.411 337.172L539.333 352.94L553.193 351.678L551.609 334.195L537.411 337.172Z" fill="#FFA8A7"/>
<path d="M566.702 350.286C565.236 346.149 561.686 341.808 556.435 342.791C554.969 343.055 553.824 343.245 552.519 343.509C552.402 347.147 545.552 349.024 538.746 346.824C536.693 347.411 534.816 348.012 533.114 348.614C528.23 350.359 526.279 358.455 526.162 372.081C526.045 385.707 524.079 412.754 524.079 412.754C524.079 412.754 534.346 418.195 553.516 414.719C572.687 411.243 572.379 404.716 572.379 404.716C572.379 404.716 571.997 396.766 563.344 383.419C570.692 363.897 568.961 356.446 566.702 350.286Z" fill="#141416"/>
<path d="M527.115 317.166C526.281 315.282 525.94 313.216 526.125 311.163C526.309 309.11 527.013 307.138 528.171 305.432C532.82 298.099 541.782 296.881 552.401 299.742C556.107 300.878 559.372 303.131 561.75 306.191C564.128 309.252 565.504 312.972 565.69 316.844C566.203 324.632 544.481 330.382 544.965 335.721L527.115 317.166Z" fill="#263238"/>
<path d="M526.66 320.13C526.66 320.13 523.727 324.853 524.123 325.337C524.852 325.793 525.656 326.116 526.499 326.29L526.66 320.13Z" fill="#F28F8F"/>
<path d="M535.651 305.154C532.717 306.767 527.613 309.759 526.586 320.804C525.53 332.142 528.141 335.999 529.725 337.437C530.796 338.405 536.164 338.625 538.936 337.686C542.412 336.498 549.893 332.553 553.296 326.627C557.3 319.645 557.916 310.493 552.988 307.031C550.493 305.276 547.594 304.183 544.562 303.855C541.529 303.526 538.463 303.973 535.651 305.154Z" fill="#FFA8A7"/>
<path d="M535.798 318.487C533.889 317.774 532.21 316.556 530.941 314.961C529.672 313.367 528.861 311.457 528.596 309.437C527.496 302.235 536.472 299.17 536.472 299.17L535.798 318.487Z" fill="#263238"/>
<path d="M534.772 305.682C534.772 305.682 532.454 316.067 535.754 322.491C535.754 322.491 537.47 318.428 540.947 319.484C544.423 320.54 544.276 325.205 541.592 327.639C540.913 328.339 540.05 328.832 539.102 329.061C538.154 329.289 537.161 329.244 536.238 328.93C537.408 331.869 539.171 334.535 541.416 336.763C541.416 336.763 551.683 341.368 560.689 331.277C568.8 322.11 567.289 306.137 554.822 302.368C542.355 298.598 534.772 305.682 534.772 305.682Z" fill="#263238"/>
<path d="M577.571 346.296C573.831 346.296 570.245 344.811 567.599 342.168C564.953 339.525 563.465 335.94 563.461 332.2V308.615C567.201 308.615 570.787 310.1 573.433 312.743C576.079 315.386 577.567 318.971 577.571 322.711V346.296Z" fill="#263238"/>
<path d="M565.03 305.52C564.725 305.619 564.443 305.776 564.2 305.983C563.956 306.19 563.756 306.443 563.61 306.728C563.464 307.013 563.376 307.323 563.35 307.642C563.324 307.961 563.362 308.282 563.46 308.586L568.095 307.119C568 306.812 567.845 306.527 567.639 306.28C567.433 306.033 567.18 305.83 566.895 305.681C566.61 305.533 566.299 305.442 565.978 305.414C565.658 305.387 565.336 305.423 565.03 305.52Z" fill="#263238"/>
<path d="M497.999 373.577C495.99 371.275 495.653 366.244 492.983 362.709C490.314 359.174 490.783 355.698 489.111 357.267C487.439 358.837 488.686 364.601 488.686 364.601C488.686 364.601 485.562 370.395 485.298 373.401C485.034 376.408 492.866 383.801 492.866 383.801L497.999 373.577Z" fill="#FFA8A7"/>
<path d="M489.083 364.16C489.083 364.16 485.9 368.56 471.599 362.811C467.654 361.197 470.323 369.69 475.163 373.21C479.651 376.466 485.254 377.478 489.743 380.543C489.757 380.074 489.083 364.16 489.083 364.16Z" fill="#FFA8A7"/>
<path d="M534.243 348.217C530.18 349.684 526.616 351.268 522.803 358.411C517.919 367.593 509.045 385.575 509.045 385.575L498 373.577C498 373.577 496.387 371.304 493.395 376.261C490.403 381.219 491.723 382.583 491.723 382.583C491.723 382.583 504.601 399.832 506.962 402.017C509.323 404.203 513.21 402.516 515.762 399.084C518.315 395.651 531.398 371.905 531.398 371.905C531.398 371.905 540.008 356.871 534.243 348.217Z" fill="#FFA8A7"/>
<path d="M536.224 347.558C533.629 347.785 531.133 348.66 528.965 350.103C526.797 351.546 525.026 353.51 523.815 355.816C518.946 364.616 513.812 374.546 513.812 374.546C513.812 374.546 517.347 383.068 526.338 383.713C526.338 382.833 533.672 369.779 536.473 364.191C539.275 358.603 538.981 350.066 536.224 347.558Z" fill="#8E93A9"/>
<path d="M549.219 434.945L549.997 426.702C554.432 426.043 558.674 424.437 562.434 421.994C562.434 421.994 559.78 426.233 552.519 428.169L550.877 436.221L550.451 452.209L549.219 434.945Z" fill="#141416"/>
</svg>
