<svg width="83" height="15" viewBox="0 0 83 15" fill="none" xmlns="http://www.w3.org/2000/svg">
<path d="M18.816 12V3.6H21.684C22.668 3.6 23.476 3.776 24.108 4.128C24.748 4.472 25.22 4.96 25.524 5.592C25.836 6.216 25.992 6.952 25.992 7.8C25.992 8.648 25.836 9.388 25.524 10.02C25.22 10.644 24.748 11.132 24.108 11.484C23.476 11.828 22.668 12 21.684 12H18.816ZM20.352 10.68H21.612C22.316 10.68 22.872 10.568 23.28 10.344C23.688 10.112 23.98 9.784 24.156 9.36C24.332 8.928 24.42 8.408 24.42 7.8C24.42 7.2 24.332 6.684 24.156 6.252C23.98 5.82 23.688 5.488 23.28 5.256C22.872 5.024 22.316 4.908 21.612 4.908H20.352V10.68ZM28.5472 12V3.6H34.0313V4.836H30.0832V7.14H33.6713V8.34H30.0832V10.764H34.0313V12H28.5472ZM39.1207 12L36.0487 3.6H37.6927L40.0687 10.428L42.4567 3.6H44.0767L41.0048 12H39.1207ZM44.8448 13.332L47.8448 2.676H49.3448L46.3328 13.332H44.8448ZM54.5035 12.144C53.8875 12.144 53.3435 12.04 52.8715 11.832C52.3995 11.616 52.0275 11.312 51.7555 10.92C51.4835 10.52 51.3435 10.036 51.3355 9.468H52.9555C52.9715 9.86 53.1115 10.192 53.3755 10.464C53.6475 10.728 54.0195 10.86 54.4915 10.86C54.8995 10.86 55.2235 10.764 55.4635 10.572C55.7035 10.372 55.8235 10.108 55.8235 9.78C55.8235 9.436 55.7155 9.168 55.4995 8.976C55.2915 8.784 55.0115 8.628 54.6595 8.508C54.3075 8.388 53.9315 8.26 53.5315 8.124C52.8835 7.9 52.3875 7.612 52.0435 7.26C51.7075 6.908 51.5395 6.44 51.5395 5.856C51.5315 5.36 51.6475 4.936 51.8875 4.584C52.1355 4.224 52.4715 3.948 52.8955 3.756C53.3195 3.556 53.8075 3.456 54.3595 3.456C54.9195 3.456 55.4115 3.556 55.8355 3.756C56.2675 3.956 56.6035 4.236 56.8435 4.596C57.0915 4.956 57.2235 5.384 57.2395 5.88H55.5955C55.5875 5.584 55.4715 5.324 55.2475 5.1C55.0315 4.868 54.7275 4.752 54.3355 4.752C53.9995 4.744 53.7155 4.828 53.4835 5.004C53.2595 5.172 53.1475 5.42 53.1475 5.748C53.1475 6.028 53.2355 6.252 53.4115 6.42C53.5875 6.58 53.8275 6.716 54.1315 6.828C54.4355 6.94 54.7835 7.06 55.1755 7.188C55.5915 7.332 55.9715 7.5 56.3155 7.692C56.6595 7.884 56.9355 8.14 57.1435 8.46C57.3515 8.772 57.4555 9.176 57.4555 9.672C57.4555 10.112 57.3435 10.52 57.1195 10.896C56.8955 11.272 56.5635 11.576 56.1235 11.808C55.6835 12.032 55.1435 12.144 54.5035 12.144ZM59.9957 12V3.6H61.5317V12H59.9957ZM68.0318 12.144C67.2398 12.144 66.5478 11.964 65.9558 11.604C65.3638 11.244 64.9038 10.744 64.5758 10.104C64.2478 9.456 64.0838 8.704 64.0838 7.848C64.0838 6.984 64.2518 6.224 64.5878 5.568C64.9318 4.904 65.4158 4.388 66.0398 4.02C66.6718 3.644 67.4198 3.456 68.2838 3.456C69.2678 3.456 70.0838 3.692 70.7318 4.164C71.3798 4.636 71.7998 5.288 71.9918 6.12H70.2758C70.1478 5.728 69.9158 5.424 69.5798 5.208C69.2438 4.984 68.8118 4.872 68.2838 4.872C67.4438 4.872 66.7958 5.14 66.3398 5.676C65.8838 6.204 65.6558 6.932 65.6558 7.86C65.6558 8.788 65.8798 9.508 66.3278 10.02C66.7838 10.524 67.3998 10.776 68.1758 10.776C68.9358 10.776 69.5078 10.572 69.8918 10.164C70.2838 9.748 70.5198 9.204 70.5998 8.532H68.4758V7.38H72.1478V12H70.7318L70.6118 10.896C70.3398 11.296 69.9998 11.604 69.5918 11.82C69.1838 12.036 68.6638 12.144 68.0318 12.144ZM74.841 12V3.6H76.377L80.325 9.516V3.6H81.861V12H80.325L76.377 6.096V12H74.841Z" fill="white"/>
<path d="M0 3H15V7.5V12H0V3Z" fill="white"/>
<path d="M1.84 10.404L4.528 7.692L1.84 4.992H3.772L6.46 7.692L3.772 10.404H1.84Z" fill="black"/>
<path d="M7.648 10.168V8.884H12.676V10.168H7.648Z" fill="black"/>
</svg>
